<svg xmlns="http://www.w3.org/2000/svg" viewBox="0 0 468.87 122.33"><defs><style>.cls-1{fill:#fffff7;}.cls-2{fill:#998066;}.cls-3{fill:#fff;}.cls-10,.cls-4{font-size:11.52px;}.cls-4{fill:#fa9b9b;letter-spacing:-0.07em;}.cls-10,.cls-13,.cls-4{font-family:VDL-MegaMaru-Regular-83pv-RKSJ-H, VDL-MegaMaru;}.cls-5{letter-spacing:-0.09em;}.cls-6{letter-spacing:-0.1em;}.cls-7{letter-spacing:-0.16em;}.cls-8{letter-spacing:-0.23em;}.cls-9{letter-spacing:-0.04em;}.cls-10{fill:#97db99;letter-spacing:-0.08em;}.cls-11{letter-spacing:-0.27em;}.cls-12{letter-spacing:-0.25em;}.cls-13{font-size:10.88px;fill:#8cc2ff;}.cls-14{letter-spacing:-0.22em;}.cls-15{letter-spacing:-0.23em;}.cls-16{letter-spacing:-0.05em;}.cls-17{letter-spacing:-0.08em;}.cls-18{letter-spacing:-0.05em;}.cls-19{letter-spacing:-0.03em;}.cls-20{letter-spacing:-0.18em;}.cls-21{letter-spacing:-0.28em;}.cls-22{letter-spacing:-0.22em;}.cls-23{letter-spacing:-0.14em;}.cls-24{letter-spacing:-0.1em;}.cls-25{letter-spacing:-0.18em;}.cls-26{letter-spacing:-0.25em;}.cls-27{letter-spacing:-0.31em;}.cls-28{letter-spacing:-0.17em;}.cls-29{letter-spacing:-0.04em;}</style></defs><path d="M26.7 129.82c.62-16.51 8.58-30.78 23.22-38.44s38.22-7.78 52.8 0 22.19 21.68 25.27 37.91m62.43 4.24c.56-15 6.46-27.75 19.71-34.69s35.65-7.68 48.85-.64 20.37 20.15 23.16 34.85m60.3-.46c.62-16.51 10.88-32.18 25.52-39.84s33.05-7.27 47.63.51 25.06 22.57 28.14 38.8" class="cls-1"/><path d="M27.15 127.41c.6-11.92 5-23.32 14.07-31.37 9.29-8.26 21.86-11.3 34-11.33s24.36 3 33.66 11.08 14.15 19.61 16.52 31.5c.38 1.92 3.32 1.11 2.94-.81-2.56-12.85-8-25.29-18.39-33.75-10.15-8.31-23.32-11.34-36.24-11C61 82 48.11 85.54 38.56 94.34c-9.32 8.59-13.82 20.6-14.45 33.07-.1 2 2.95 2 3 0zM190 130.27c.53-10.74 3.82-21.52 12.18-28.77s20.24-9.87 31.2-10 21.93 2.44 30.33 9.87 12.85 18 15 28.78c.39 1.92 3.32 1.11 2.94-.81-2.41-12-7.68-23.69-17.45-31.51-9.15-7.33-20.82-9.7-32.33-9.35-11.32.34-23.19 3.19-31.87 10.82-8.93 7.85-12.5 19.37-13.07 30.93-.1 2 3 2 3 0zm153.33-.94c1.37-25.1 23-44.16 47.83-43.85 25.26.31 45.53 19.55 50.46 43.73.39 1.92 3.33 1.11 2.94-.81-5.33-26.11-27.87-46.44-55.05-46-26 .46-47.81 20.81-49.23 46.9-.11 2 2.94 2 3 0z" class="cls-2"/><path d="M70.7 64.22c-3.56-6.58-12.75-6.69-19.57-9.76a21.79 21.79 0 0 1-12.55-18.7 21.79 21.79 0 0 1 11.25-19.52c4.89-2.61 10.57-3.22 16.1-3.59a243.72 243.72 0 0 1 33.51.07c3.7.26 7.48.63 10.85 2.17 4 1.83 8.68 4.56 11.49 8 5 6.07 7.94 15.31 3.78 22-2.86 4.59-8.69 6.21-14 7.1a127.24 127.24 0 0 1-21 1.76c-4.18 0-8.48-.19-12.42 1.22s-7.55 4.84-7.57 9.03m159.21 11.62c.41-3.22-2.91-5.64-6-6.71-8.64-3-18.51-2.85-25.34-8.94a15.57 15.57 0 0 1 3.66-25.66 29.12 29.12 0 0 1 7.9-2.13c14.3-2.39 17.1-2.42 31.59-1.93 7.14.24 14.39.87 21 3.54s10.41 6.83 12.79 13.58-1.74 15-7.83 18.72c-4.11 2.52-9.21 2.62-14 2.66-11.45.07-12.34.24-17.55.68-2.22.19-6.42 4.12-6 6.3m160.42-11.06c-1.13-2.86 2.6-7.14 5.36-8.51 8.54-4.25 18.62-3.17 28.11-4.06s18.4-5.32 20.63-14.59c1.57-6.52 0-13.49-5.23-17.74s-11.86-6.24-18.43-7.56C405 9 388.73 9.12 372.58 9.22a74.58 74.58 0 0 0-17.89 2.35c-12.76 3.24-20 13.91-18.41 26.19.4 3 2.4 6.26 4.43 8.45a21.64 21.64 0 0 0 13.64 6.53c8 1 12.26 2.08 20.21 3.07 6.42.8 14.29 2.87 15.57 9.2" class="cls-3"/><text class="cls-4" transform="translate(51.1 40.25)">あ<tspan x="10.71" y="0" class="cls-5">た</tspan><tspan x="21.21" y="0" class="cls-6">た</tspan><tspan x="31.6" y="0" class="cls-7">か</tspan><tspan x="41.24" y="0" class="cls-8">く</tspan><tspan x="50.16" y="0" class="cls-9">て</tspan></text><text class="cls-10" transform="translate(216.74 54.74)">や<tspan x="10.62" y="0" class="cls-11">さ</tspan><tspan x="18.99" y="0" class="cls-12">し</tspan><tspan x="27.64" y="0" class="cls-9">い</tspan></text><text class="cls-13" transform="translate(346.48 30.46)"><tspan></tspan><tspan x="14.49" y="0" class="cls-14"> </tspan><tspan x="15.76" y="0" class="cls-15">し</tspan><tspan x="24.15" y="0" class="cls-16">な</tspan><tspan x="34.48" y="0" class="cls-17">や</tspan><tspan x="44.49" y="0" class="cls-18">か</tspan><tspan x="54.78" y="0" class="cls-19">な</tspan><tspan class="cls-20"><tspan x="-.52" y="13.06">コ</tspan><tspan x="8.34" y="13.06" class="cls-21">ミ</tspan><tspan x="16.16" y="13.06" class="cls-22">ュ</tspan><tspan x="24.68" y="13.06" class="cls-23">ニ</tspan><tspan x="34.08" y="13.06" class="cls-24">ケ</tspan><tspan x="43.88" y="13.06" class="cls-25">ー</tspan><tspan x="52.77" y="13.06" class="cls-26">シ</tspan><tspan x="60.97" y="13.06" class="cls-27">ョ</tspan><tspan x="68.45" y="13.06" class="cls-28">ン</tspan><tspan x="77.52" y="13.06" class="cls-29">を</tspan></tspan></text><path d="M213.31 106.73c-1.18-.81-3.07.63-3.73 2.23a2.64 2.64 0 0 0 .16 2.87 2.44 2.44 0 0 0 1.16.69c1.61.46 2.77-2.19 3.06-3.85.2-.67.53-1.13-.65-1.94zm43.8 2.97a11.69 11.69 0 0 0-1.36-2 2 2 0 0 0-2.4.14 2 2 0 0 0-.54 2.28c.55 2 1.42 3.92 3.67 2.79 1.11-.73.96-1.91.63-3.21zm-32.26 1.99c3.66 4.34 12.91 4.74 15.9-.61.6-1.08-1.05-2-1.66-1-2.4 4.29-10.07 3.55-12.89.22-.8-.95-2.15.42-1.36 1.36zm-175.78-6c-1.21 1.46-2 3.46-1 4.88 1.48 1.48 2.85.23 3.62-.94a5 5 0 0 0 .42-3.11 2 2 0 0 0-1.21-1.42 1.8 1.8 0 0 0-1.83.59zm48.66 4.41a4.8 4.8 0 0 0 .58 1.35 2.35 2.35 0 0 0 1 .77 5.24 5.24 0 0 0 1.8.38 1.9 1.9 0 0 0 1.23-.63 3.23 3.23 0 0 0 .58-1.87 5 5 0 0 0-1-3.15c-.62-.88-2.27-1.63-3.25-.78s-1.01 2.83-.94 3.93zm-18.01-2.28c.87.18 1.72.45 2.57.71l-.67-1.18c-1 3.13-4.47 3.76-7.41 3.56-2.75-.18-4.88-1.84-6.81-3.69l-.19 1.51c3.92-1.92 8.59-1.27 12.77-.87 1.23.12 1.22-1.81 0-1.92-4.61-.43-9.45-1-13.74 1.14a1 1 0 0 0-.19 1.51c2.86 2.74 5.75 4.5 9.79 4.22 3.5-.24 6.5-1.38 7.64-4.94a1 1 0 0 0-.67-1.18c-.85-.26-1.7-.54-2.57-.71-1.24-.26-1.73 1.59-.52 1.84zm285.68.59a1.88 1.88 0 0 0-.08.2c-.53 1.51.2 6.14 2.67 5.11 1.56-.65 1.86-4.36.9-5.57a1.71 1.71 0 0 0-1.17-.57c-.91-.11-1.89-.07-2.32.83zm49.07-.74c-1.59.78-1.34 3.29-.76 4.63 1 2.3 3.77 1.89 3.84-.72 0-1.32-.38-3.2-1.69-3.84a1.53 1.53 0 0 0-1.39-.07zm-33.73 4.42a24 24 0 0 0 6.23.52c1.46-.12 3.28-1 4.76-.87s3.23 1.13 4.89 1.34a19 19 0 0 0 6.42-.39c1.21-.26.7-2.11-.51-1.85a16.18 16.18 0 0 1-7.69 0c-1.14-.3-2.38-1.13-3.55-1.22-.46 0-.81.25-1.24.34a21.31 21.31 0 0 1-8.8.31c-1.21-.22-1.73 1.63-.51 1.85z" class="cls-2"/></svg>