<svg xmlns="http://www.w3.org/2000/svg" id="レイヤー_1" data-name="レイヤー 1" viewBox="0 0 214.02 113">
  <defs>
    <style>
      .cls-1{fill:#fff;}
    </style>
  </defs>
  <path d="M102 53a6.81 6.81 0 0 1-2.15-1.8c-4.45-5.62-5.25-13-4.83-19.95.41-6.76 1.31-14.65 6.34-19.69 2.31-2.31 6.35-4.24 9.41-2.26.55.36 1 .88 1.58 1.18a3.12 3.12 0 0 1 1.33 1.72 14.34 14.34 0 0 1 .72 2.8c0 .2-.23.47-.36.71a2.47 2.47 0 0 1-.45-.55c-1.21-2.9-2.48-5.64-6-5.27a3.81 3.81 0 0 0-3.13 1.75c-2.56 4-4 10-4.56 14.65-1 8.17 1.07 17.88 6.15 24.51a6.87 6.87 0 0 0 5.18 2.73 9.13 9.13 0 0 1 1.14.2 1.28 1.28 0 0 0 .49 0c.8-.2 1.59-.49 2.4-.63 1.17-.19 2-1 3-1.56a7.3 7.3 0 0 0 1.63-1.53 7.72 7.72 0 0 1 2.17-2l.21.1a6.25 6.25 0 0 1-.34.92 15.37 15.37 0 0 1-1.1 1.81 7 7 0 0 1-1.31 1.38A22.52 22.52 0 0 1 117 54c-4 2.29-11.15 1.13-15-1zm56.06-21.62h1.64a1.35 1.35 0 0 1 1.46 1.2c.16.73-.14 1.06-.88.95l-1.46-.24c-.65-.11-.82.06-.88.7-.16 1.57-.58 3.1-.65 4.68a5.89 5.89 0 0 0 .22 2.35c.34.86 2 2.44 1.81 3.09-.29.93-2 1.1-2.78.81-2.16-.84-3.95-4.06-4-6.26 0-.77-.09-1.55-.06-2.32a16.34 16.34 0 0 1 .24-2.2c.08-.45-.11-.61-.49-.69s-.85-.21-1-.7.25-1.07.66-1.14c1-.17 1.13-.9 1.14-1.59a7.89 7.89 0 0 1 .3-2 5.29 5.29 0 0 1 1.95-3.14 5 5 0 0 1 1.25-.79c3.28-1 2 4.7 1.63 6.08a9.48 9.48 0 0 0-.1 1.21zm-34.18 10.73a15.35 15.35 0 0 1 .52-3.68 7.45 7.45 0 0 1 1-1.88c.06-.09.33-.13.48-.08a1.22 1.22 0 0 0 .92-.05 3.84 3.84 0 0 1 2.93.07 7.14 7.14 0 0 1 4.14 6.06 20.5 20.5 0 0 1 0 3.44 10.86 10.86 0 0 1-.73 2.57c-.31.82-1.11 1.06-1.87 1.3s-1.26.36-1.9.53c-2.15.57-3.75-2.1-4.5-3.69a10.37 10.37 0 0 1-.99-4.59zm5.42 0a2.26 2.26 0 0 0-3.62-1.11.43.43 0 0 0-.07.39c.12.75 1.25 5.14 2.4 4.91s1.56-3.2 1.28-4.15zm-3.3-3.27l.2.15a6.14 6.14 0 0 0 .64-.67c.06-.08-.06-.27-.09-.42-.12 0-.29.06-.35.15a7.4 7.4 0 0 0-.4.79zm69.15-10.11l2.22-.54a1.05 1.05 0 0 1 .72 0c.57.29.16 1.2-.39 1.54a4 4 0 0 1-1.61.58 2.51 2.51 0 0 0-1.1.26 1.93 1.93 0 0 0-.62 1.48 6 6 0 0 0 .21 3.07 2.05 2.05 0 0 0 2.51 1.23 1.38 1.38 0 0 1 .52-.19c.42 0 .64.56.47.94a1.89 1.89 0 0 1-.94.79l-2.73 1.42c-1 .5-2.1 1-3.1.57a2.53 2.53 0 0 1-1.32-2 9.32 9.32 0 0 1 .16-2.51 24.86 24.86 0 0 0 .22-4 .42.42 0 0 0-.46-.51c-.79-.07-2.17 0-2.42-.95a1 1 0 0 1 .6-1c.72-.25 1.54.44 2.25.16.53-.21.72-.83.86-1.38l.52-2.1a5.13 5.13 0 0 1 1.5-3c.9-.69 2.55-.45 2.78.66a3 3 0 0 1-.31 1.57 9.51 9.51 0 0 0-.54 3.91zm-55.41 5.78a3 3 0 0 1 1 2.33c0 .17.18.47.3.48a.74.74 0 0 0 .57-.25c.7-.87 2.89-2.13 3.73-.8a7.49 7.49 0 0 1 1.36 2.5c.51 2.05 2.51 3.38 3.2 5.31.27.76-.3 1-.69 1.32a1.51 1.51 0 0 1-1.2.14 3.1 3.1 0 0 1-2.01-2.23 6.5 6.5 0 0 0-.67-1.17c-.55-1.06-1.08-2.13-1.61-3.2-.26-.52-.58-.6-.92-.13a9.08 9.08 0 0 0-1.08 1.72 2.36 2.36 0 0 0-.07 1.26c.17 1.07.41 2.14.64 3.2a1.57 1.57 0 0 0 .21.43c.56 1-.21 1.59-.6 2.29a1 1 0 0 1-1.4.37 1.72 1.72 0 0 1-.67-.51 8.6 8.6 0 0 1-1.4-3.48 42.67 42.67 0 0 1-1-6.39 3.61 3.61 0 0 1 .49-2.32c.27-.53 1.17-1.45 1.82-.87zM168.4 32c1 .36 1.38-.28 1.75-.86s.84-.53 1.5-.26.39.58.38 1a19.59 19.59 0 0 0 .53 3.48 4.24 4.24 0 0 0 1.2 2.48 5.56 5.56 0 0 1 .79.81c.2.3.5.74.41 1a4.11 4.11 0 0 1-.9 1.14h-.24c-.52.32-1 .48-1.52-.08a17.47 17.47 0 0 1-2.15-3.5c-.2-.35-.37-.34-.61-.09L167.67 39a2.13 2.13 0 0 1-2.26.09 5.12 5.12 0 0 1-.69-.71.74.74 0 0 1-.11-.43 6.86 6.86 0 0 1 2.13-5.33 4.76 4.76 0 0 1 1.66-.62zm0 2.45l-.19-.21-.64.4c-.63.4-.71 1.13-1 1.73a2 2 0 0 0-.1.49c.19 0 .43 0 .57-.06a3.89 3.89 0 0 0 1.38-2.36zm16.07 3.25l.88.35c-.09.12-.22.22-.21.29.14.59-.29.64-.66.72-.57.12-1.14.22-1.72.28a7.37 7.37 0 0 1-3.22-.38 9.74 9.74 0 0 1-2.17-1.08c-.71-.46-1.56-3.39-1.14-4.07a5.3 5.3 0 0 1 2.29-1.81c.81-.4 3.32-2.36 3.95-.86a.55.55 0 0 1-.06.5c-.76.65-1.52 1.32-2.31 1.94-.62.49-1.4.9-1.49 1.77a2.22 2.22 0 0 0 1.47 2.12 5.07 5.07 0 0 0 3 .41h.74s.46 0 .68-.08z"/>
  <path d="M214 106.05c-2-13-13.54-31.6-24.34-37.46s-30.9-7.34-39.74-4.07-24.67 12.12-30.26 41.62c0 0 36.19.15 48.48.58 16.38.57 31.86.67 45.86-.67zm-104.36 2.52c.27-12.23-5.94-35.45-27.5-45.57s-30.22-6.37-37.92-5.46S20.58 62.9 13 76.89s-9.35 29.84-9.35 29.84a303.49 303.49 0 0 0 32.81 1.67c17.29-.12 44.54 1 50.06 1.11 6.48.11 23.12-.94 23.12-.94z" class="cls-1"/>
  <path d="M16.16 71.45c3-4.62 11.24-10.92 23-14.61 12.83-4 26-3.64 37.18 1 31.22 13.08 33.31 41.28 33.33 41.56l2-.12c0-.3-2.2-29.73-34.55-43.28C51 45.08 21.73 59.1 14.47 70.37zm105.32 26.96c.81-15.73 14.09-34.17 34.12-36.54 14.56-1.72 25 1.23 31.15 4a33.82 33.82 0 0 1 10 6.49l1-1.76c-.56-.59-13.46-14.13-42.37-10.72-21.08 2.49-34.84 21.32-35.68 37.86z"/>
  <path d="M84.45 85.28a2 2 0 0 0 1.79-1.16 3.76 3.76 0 0 0 .31-1.74 7.13 7.13 0 0 0-.48-2.38 2.41 2.41 0 0 0-.93-1.27 1.81 1.81 0 0 0-2 .23 3.28 3.28 0 0 0-1.06 1.77c-.38 1.4-.32 5 2 4.5M37.15 83A3 3 0 0 0 39 80.28a5.92 5.92 0 0 0-.49-2.57 2.77 2.77 0 0 0-1.73-1.86 2.4 2.4 0 0 0-2.41 1.44 4.57 4.57 0 0 0 .93 5.36c.53.48 1.37.82 1.93.21M51.38 80a1 1 0 0 1 .62-1.67 48 48 0 0 1 16.46.32 1 1 0 0 1 .72.52 1 1 0 0 1 0 .89c-1.24 2.64-3.25 5.31-8.78 5.11a13.11 13.11 0 0 1-2.52-.58 14.37 14.37 0 0 1-6.5-4.59zm2.8.09a11.31 11.31 0 0 0 6.39 3.14c3.59.13 5.19-1.22 6.17-2.79A46 46 0 0 0 54.18 80zm126.99 2.56c-.33 1.14-1.23 2.38-2.56 2-1.05-.64-1.08-2.15-1.05-3.58 0-1.27 1.11-2.79 2.33-2.45a2.38 2.38 0 0 1 1.44 1.86 5.31 5.31 0 0 1-.17 2.14zm-37.99-.22a3.89 3.89 0 0 1-.25 3.37c-.59 1.17-2.54 1.61-3.17.46a5.29 5.29 0 0 1-.43-2.42 2.55 2.55 0 0 1 2-2.44 2.33 2.33 0 0 1 1.85 1.03zm19.45 4.86a8.7 8.7 0 0 0 5.37-3.68 1 1 0 0 0-1.68-1.09 6.71 6.71 0 0 1-4.19 2.83 10.87 10.87 0 0 1-4.36-.32 3.16 3.16 0 0 1-2-2 1 1 0 0 0-1.24-.68 1 1 0 0 0-.68 1.24 5.11 5.11 0 0 0 3.3 3.29 12.8 12.8 0 0 0 5.41.4z"/>
</svg>
