<svg xmlns="http://www.w3.org/2000/svg" viewBox="0 0 154 31.5">
  <defs>
    <style>
      .cls-1{fill:#b1d1e1;}
    </style>
  </defs>
  <path d="M12706.3 14.15l-8.83 1.02-12.28-.34-6.58-.63-7.42.31-9.21.08-6.79-.3-9.35 1.11-9.67-1.08-6.31.18-9.68.4-8.11-.52-8.32.49-8.76-.5-15.3.56-10.39.16-9.56-.64-6.39-.25-8.23.32-7.88.04-18.63.68-8.22-.97-7.23.35-9.09-.32-7.72.04-7.87-.03-7.61.34-10.2.65-8.69-.8-7.16.29-8.38-.1-9.45.4-9.05-.73h-6.49l-9.57.39-7.99-.62-7.96.46-8.35.06-9.83-.11-6.75-.28-8.7.53-7.93-.52-7.21.64-10.23.1-17.52-.65-7.93-.18h-6.23l-9.96.95-8.64-.94-6.74.52-9.49.03-8.98.27-8.01-.49-7.54.4-9.34-.08-8.12-.01-9.13.16-9.18-.63-6.04-.22-8.95.77-8.07-.6-8.33.92-8.83-.63-7.23.55-10.85.04-8.08-.71-7.84.18-7.83-.4-8.32.47-8.35-.4-6.75.39-9.9.36-9.33-.22-8.61-.27-6.26-.04-8.44.66-11.44-.18-7.21-.5-6.44.08-8.88.48-8.65-.16-8.92.32-18.08-.96-6.65-.19-6.54.22-8.98.88-9.94-.09-24.61-.45-9.13.3-7.5-.57-7.69.69-9.53-.31-8.74.11-7.44-.43-9.13.65-8.94-1.03-5.57.17-9.18.65-10 .24-9.38-.76-5.49-.26-7.99.95-18.73-.37-7.91-.29-6.79.19-9.51.57-9.37.09-9.31-.52-6.87-.29-15.64.44-8.65.14-9.06-.05-8.26-.17-9.26.13-8.29-.69-5.96.1-10.26.76-9.05-1.04-6.27.15-8.7.11-8.15.01-9.36.33-7.1-.46-8.14 1-10.88-.56-6.64-.27-7.81.36-11.13-.15-7.23-.55-7.08.04-6.95-.01-8.17.89-11.35.12-8.54-.84-5.24-.02-9.83 1.16-10-1.07-5.62.01-9.94.78-7.96-.84-7.7.82-8.8-.51-7.39.56-10.64.06-7.68-.57-8.44.41-7.91-.64-7.73.62-8.71-.34-8.53.45-9.19-.47-8.52-.02-8.33-.27-5.84-.05-9.05 1.01-10.81-.62-6.55-.52-8.09.66-9.26-.6-24.33.49-16.89-.52-6.29.05-10.22 1.06-7.94-1.01-8.43 1.13-8.23-1.14-7.38 1.01-10.29-.68-9.21-.08-5.68-.39-7.09.81-10.12.16-8.76-.12-7.56-.22-9.37.44-7.47-.77-8.05.88-8.77-.72-8.59.67-9.95-.98-6.48-.21-8.35.25-7.05-.23-8.34 1.02-17.27-.53-8.09.57-10.81-.13-8.5-.8-5.41-.12-7.78.82-9.56.16-9.34.01-7.85-.23-8.86.28-7.72-.49-8.97.66-8.03-.87-7.74.74-9.69-.63-7.91.04-7.58-.26-8.82.47-8.52-.56-7.82.34-9.54-.3-6.16-.12-8.65.81-9.2.26-9.19-.22-7.34-.09-8.36.22-18.85-.33-6.66-.44-8.04.35-16.68.03-8.7.19-9.29-.38-7.99-.22-6.57-.07-7.28.47-11.04.55-7.56-.8-6.82.71h-9.85l-10.48-.16-8.34-.63-5.04-.26-8.08 1.08-10.74-.34-8.59-.52-7.78-.18h-7.65l-6.81-.11-8.41 1.02-10.42-.22-16.15-.76-7.01.25-9.41.64-8.09-.5-8.03.68-10.28-.43-8.09-.27-6.98-.05-8.52.21-9.05-.17-8.24-.36-6.16.08-9.58 1-10.06-.72-14.97-.11-7.8.25-9.51.6-9.23-.66-6.55.03-9.27.4-8.07-.42-9.07.56-7.53-.79-7.67.94-18.18-.98-6.35.09-8.68.68-9.67-.08-7.82-.26-8.44.41-8.84-.35-7.44.12-9.53.35-8.31-.67-8.47.32-8.27-.75-6.32.26-9.35.67-10.19-.53-7.65-.21-6.08-.07-8.31.87-11.14-.12-8.6-.75-5.3-.16-8.1 1.01-10.33-.15-9.13.07-7.97-.76-6.43.2-10.01.11-8.27-.47-6.66.09-9.35.45-8.99-.46-6.62.04-9.15.49-8.32.04-7.48.25-9.97.09-7.86-.37-8.33.31-9.17-.44-6.38-.1-9.52.74-8.71-.84-7.57.35-8.32.03-9.17.17-7.6-.5-7.72.48-18.67.28-8.76-.96-6.09-.11-8.33.36-8.1-.14-8.29.5-9.54-.15-16.19-.63-7.19.26-9.46.15-7.19-.11-9.62.9-8.3-.86-7.8.77-10.72-.7-7.19-.34-7.55.01-7.21.14-9.01.48-9.14.15-9.13-.3-6.73-.3-7.69.63-9.59-.02-9.85-.09-6.96-.67-8.19.69-8.46-.73-8 .6-9.44-.6-7.3.03-8.56-.04-7.48-.09-8.53.5-17.78-.39-8-.07-8.23.12-7.25-.18-8.48.72-8.34-.3-8.01.67-11.04-.18-7.03-.71-7.84.57-7.63-.52-8.48 1.06-9.88-.79-7.59.12-8.52-.26-7.77.02-8.67-.07-6.89.12-8.71.51-10.42-.12-8.32-.36-7.17-.24-8.17.17-7.17-.18-9.15.91-8.68-.71-8.11.59-10.36-.7-5.34-.18-8.52.88-10.57-.5-5.94-.37-8.33 1.08-11.07-.7-5.5-.2-7.66.77-11.33.09-8.45-.91-6.78-.02-6.8-.12-8.1 1-11.33-.04-7.44-.64-7.25.36-10.16.19-8.35-.89-6.49.1-7.81-.02-7.3.51-10.38.46-9.71-.45-7.14-.25-7.43.14-8.34.38-10.89-.12-8.31-.56-5.93-.25-7.76.54-10.88-.1-7.63-.4-6.37-.03-7.26.53-9.74.5-10.57-.07-7.51-.76-7.92.38-8.16-.58-7.57.43-8.94-.19-7.15.13-8.7.45-8.6-.04-8.89.3-15.94-.58-9.24.68-8.56-.81-8.35.49-9.02-.88-6.15.09-17.09.78-10.53-.14-7.41-.4-7.97.06-7.47-.22-6.97.44-10.02.43-10.88-.34-6.9-.58-14.31.33-10.58.81-8.73-1.19-5.66.28-8.66.33-19.07.17-8.37-.74-6.94.02-7.25-.04-8.4.72-9.13-.09-8.33.26-10.33-.15-6.42-.35-8.57.59-8.73-.63-6.53.28-19.41.46-7.61-1.01-6.55.5-9.6-.07-8.49-.25-8.58.02-7.25-.34-8.62.61-8.28-.56-8.27.61-9.01-.59-5.93.17-9.34.89-17.83-.8-7.28.13h-9.69l-7.56-.39-6.78.32-9.04.73-11.18-.39-7.82-.59-5.56-.21-9.01 1-8.86-.76-7.61.54-8.5-.34-8.34.47-9.82-.41-7.21-.5-7.62.39-9.43.13-7.05-.4-8.67.84-9.9-.82-6.16-.07-7.3.42-10.37.4-8.02-.5-8.06.45-8-.37-7.64.57-10.87-.04-7.52-.73-7.01.33-8.71-.11-16.15.32-8.58.07-8.97.28-7.83-.43-8.73.52-7.95-.68-7.02.58h-10.44l-8.53-.5-9.19-.18-5.52-.39-8.17 1.02-9.75-.6-8.41.18-7.56-.53-7.84.54-9.19-.36-7.49.08-8.43.24-9-.14-7.93-.23-6.59.13-9.24.77-11.28-.51-5.86-.5-8.08.72-8.73-.62-8.39.49-8.1-.63-7.24.5-8.97.27-10.76-.19-5.92-.45-7.57.68-10.1-.28-7.41.01-9.1.22-8.92-.69-5.4-.09-7.94.97-10.52.07-8.35-.27-8.33.03-24.06-.93-8.17.52-8.35-.28-6.9.42-11.29.53-8.97-1.23-12.9.05-8.29 1.06-11.48.07-7.42-.71-8.23.54-7.9-.72-7.93.75-9.76-.63-7.37-.02-15.8-.36-7.13.45-10.98.82-8.75-1.18-7.02.31-8.56-.34-6.67.19-9.76.59H7813l-8.95-.37-7.98-.23-6.57-.13-9.23.66-8.99-.72-7.57.2-6.79-.2-8.08 1.13-11.73-.14-7.02-.73-7.76.59-8.81-.56-7.45.32-9.16-.07-7.1-.23-9.49.93-9.55-1.09-5.4.07-9.05.78-10.19-.34-7.75-.44-7.07.17-8.44.42-9.9.2-7.95-.64-6.39.29-10.38.57-7.94-.8-7.37.6-9.08-.32-9.25.3-7.51-.75-7.98.7-8.8-.67-6.34.35-11.02.44-8.62-.98-15.68.3-6.77-.3-8.72 1.14-9.75-.71-7.75.21-9.29-.33-6.4-.33-8.74.94-9.28-.75-6.47.26-8.75.52-9.39-.09-8.45.04-8.31-.27-7.74.03-9.17.24-8.61-.66-7.04.04-8.28.21-10.07-.15-6.52-.33-8.57.55-9.29-.65-15.26.07-6.8.14-9.47.94-10.18-.6-7.82-.21-6.56-.31-8.23.91-10.57-.46-6.88-.2-7.87.26-8.9-.03-7.57.01-9.14.31-7.97-.42-8.77.48-9.42-.8-5.74-.13-7.85.65-10.3.45-9.01-.79-6.09-.02-9.06.51-9.02-.48-14.55.12-10.33.8-8.84-1.21-5.2.2-8.69.7-9.36.07-8.4.17-10.23-.15-14.34-.89-8.42.75-9.2-.67-7.54.2-8.6-.21-7.78.05-8.01-.13-8.3.37-9.3-.17-6.39-.05-8.31.77-9.82-.1-15.87.19-10.08.04-7.95-.84-7.3.18-9.26-.35-7.36-.2-14.43.18-9.08 1-9.41-.37-8.99.27-8.41-.76-6.58.13-8.55.1-7.56-.02-9.98.73-8.44-1.03-6.86.41-9.59-.22-7.32-.32-6.77.37-9.48.67-16.23-.61-8.85.74-8.42-.61-7.37.53-17.92-.27-7.41.08-8.85-.06-16-.49-8.97.44-7.8-.62-7.18.57-8.67-.07-9.8.5-8.07-.89-6.96.48-9.64-.16h-9.01l-7.46-.59-8.05.44-9.09-.54-6.62.03-8.64.42-16.9-.25-15.48.47-10.18.62-7.97-.74-8.68.74-8.75-1.07-6.87.35-7.83.13-9.56.45-8.03-.5-8.91.59-9.46-1.01-6.09-.07-7.45.34-8.95.57-9.55-.15-8.98.06-8.35-.69-6.04.02-9.23.55-8.31.04-9.68-.06-7.42-.29-8.85.16-6.86-.51-7.26.86-10.05-.04-8.68.19-7.95-.4-8.98.37-9.23-.9-7.22-.14-6.78-.04-17.84 1.22-9.74-.93-5.65-.14-9.27.79-9.91-.9-5.09-.11-9.66 1.3-9.11-1.09-6.63.49-10.9-.08-6.64-.33-8.83.52-8.74-.76-5.53.17-9.38 1-10.58-.48-6.8-.16-8.35.26-9.23-.25-7.24-.09-8.66.21-15.9-.53-8.56.59-10.1-.49-6.51-.21-7.9.41-10.24-.08-7.62-.3-7.58.04-6.66.18-9.68.95-10.7-.7-7.33-.58-6.27.1-7.76.41-10.28.74-9.89-.96-6.2-.23-7.9.38-8.63-.1-9.02.24-8.72-.5-7.4.01-8.37.22-6.96-.19-7.84.95-11.88.07-7.25-1-7.46.59-8.99-.65-7.66.27-7.51-.22-7.9.67-10.79.44-7.29-.94-6.6.76-11.33-.09-8.63-.8-5.11-.16-8.44 1.12-9.61-.38-9.05.33-8.39-.75-14.81.44-10.41.21-8.27-.82-5.66.13-10.38.82-8.79-1.04-5.89.27-9.75.71-9.41-.7h-6.51l-8.59.38-8.33-.15-8.84.38-15.72-.8-7.29.77-10.3.21-10.55-.37-5.84-.51-7.69.71-9.12-.41-7.92.3-10.88-.27-6.29-.51-7.35.47-10.6-.21-6.49-.33-8.26.56-8.42-.39-8.61.53-7.54-.5-8.6 1.03-8.81-.76-7.74.63-10.3-.48-7.76-.21-7.02-.33-7.87.59-9.74-.17-8.69-.25-14.29-.19-8.78 1.02-10.7-.49-7.03-.53-7.44.46-9.66.22-8.55-.52-7.22.06-7.55.25-9.87.48-7.77-.65-7.32.63-9.89-.17-8.11.08-7.58-.23-8.06.45-9.41-.14-8.45-.31-16.19-.05-7.68-.2-8.76.49-8.24-.44-7.84.47-9.64-.23-8.87-.05-6.5-.28-8.28.61-9.08-.36-9.04.21-6.99-.63-8.54.99-9.15-1-7.68.43-7.63-.49-9 .94-8.78-1.01-15.6 1.03-8.8-.33-9.4.3-8.85-1.03-6.79-.05-7.65.11-7.07.23-9.41.75-8.77-.36-9.14.43-7.57-.75-7 .69-9.95-.1-9.08.04-7.22-.56-7.41.55-9.76-.18-7.37-.25-7.98.41-8.3.17-10.88.01-6.54-.95-7.16.94-16.75-.97-7.56.9-11.41-.08-7.32-.71-7.85.45-9.24-.6-7.35-.02-6.68-.09-8.02.98-11.89.07-6.86-.94-6.91.75-8.8-.31-9.56.68-8.39-1.06-7.21.42-8.31.06-8.25.23-10.11-.07-6.97-.66-7.56.63-8.92-.39-7.75.31-10.78-.14-6.16-.42-8.66.68-8.4-.79-7.6.55-7.9-.36-8.05.81-9.56-.27-8.49.12-8.36-.34-8.44.1-7.64-.39-7.81.42-8.88-.17-9.13.15-8.1-.6-6.69.19-8.08.3-8.93.15-8.76.01-8-.19-9.37.44-7.89-.76-5.86.43-10.88.52-8.46-.66-8.46.31-8.41-.75-6.48.19-8.99.07-8.15.27-8.93-.06-8.88.12-8.39-.56-7.14.05-7.08-.01-8.98.93-9.2-.44-9.22.37-7.1-.81-7.02.89-9.88-.22-7.72.11-10.05-.02-6.85-.57-7.69.72-11.19-.48-6.4-.47-7.89.42-9.49.05-8.25-.59-7.07.06-6.89-.08-8.73 1.2-10.92-.47-6.92-.09-9.13.13-8.11-.54-15.8.47-7.76-.16-9.87.67-8.93-1.16-5 .12-9.35.98-9.62-.46-7.31.11-8.75.26-9.18-.24-8.16-.33-8.77-.04-6.61-.25-7.74.57-10.82-.05-6.74-.3-7.62.43-9.23-.02-9.6.23-7.47-.91-6.64.54-8.58-.06-9.87.62-8.91-1.01-7.35.15-6.9-.29-7.87.95-18.56-.25-8.35.1-8.47-.34h-8.21l-7.2-.23-8.5.61-8.47-.39-8.95.55-9.41-.85-5.66-.06-8.59.75-10.11-.29-6.94-.13-9.21.43-8.25-.64-7.44.39-9.5-.2-7.76-.03-8.05.03-7.95.13-8.91.25-15.58-.5-9.83.92-8.15-1.12-7.54.8-8.62-.67-6.97.59-10.99.14-8.39-.81-5.41.04-8.56.88-19.69-.22-7.81-.8-5.92.12-9.82.56-7.91-.6-8.51.71-9.44-.85-6.34.05-8.91.36-7.46-.22-8.45.84-9.85-.37-8.94-.02-7.55-.62-7.31.34-7.58-.12-8.74.87-10-.45-9.14-.14-7.55-.43-5.7-.03-9.15 1.12-9.11-.57-7.65.48-10.92-.23-7.62-.91-5.39.15-10.18.84-8.21-.81-7.38.6-10.28.26-7.27-.78-7.88.77-8.89-.68-7.24.39-9.3.22-24.27-.88-8.72.5-7.57-.44-8.39.93-8.9-.57-8.31.49-18.29.04-8.19-1-5.83.07-9.34.43-8.76-.46-5.89.1-10.43 1.17-9.22-1.26-6.53.3-9.19-.1-8.56-.28-6.79-.02-8.35.5-8.29.23-9.98.16-7.9-.54-7.62.31-8.73-.22-8.58.13-7.76-.33-7.93.38-8.72-.17-9.22.2-6.95-.56-7.83.9-10.71-.52-7.33-.51-5.82.2-9.29.93-11.5-.42-7.37-.59-6-.05-9.06.65-8.17-.47-7.41.59h-10.92l-8.2-.79-5.61.03-8.3.7-8.98.05-8.47.3-10.52-.06-8.22-.97h-4.85l-8.33 1.07-11.76-.02-7.85-.96-7.02.2-7.51-.22-9.11.74-9.75-.83-5.39-.08-7.75.88-11.51.27-8.15-.93-6.11.19-7.98.11-9.64.73-9.99-.76-5.52-.2-7.98.91-11.62-.2-6.53-.8-6.64.71-11.29-.09-7-.35-17.51.58-7.86-.93-6.85.43-9.02-.16-6.9.1-10.05.74-7.93-.82-8.36.84-9.5-1.04-5.72.1-9.12.53-8.3.11-9.92-.11-8.29-.33-7.63-.51-6.77.21-9.29.52-8.81-.53-7 .16-8.52.27-17.22-.05-15.67.33-10.55.31-6.81-.98-6.76.95-10.69-.3-7.07-.35-8.06.57-9.37-.33-7.72.01-7.61-.19-9.38.67-8.4-.83-6.99.44-9.48-.11-8.39-.25-15.05-.03-9.06.65-17.64-.9-5.93-.01-9.26 1.04-8.9-.61-9.02.61-7.83-.96-7.55.76-9.48-.64-7.94.15-8.3-.35-6.3.11-9.16.82-8.99-.36-7.8.33-10.24-.1-7.48-.65-8.14.36-7.94-.6-7.33.49-9.56-.12-7.12-.29-7.56.69-11.24.09-7.77-.87-7.18.31-7.77-.26-8.29.66-8.54-.29-8.15.51-9.7-.25-8.81-.38-6.61-.19-7.97.39-9.2-.08-9.02.02-7.74-.51-7.61.27-9.08.07-8.03-.33-8.2.19-8.03-.28-16.54.71-8.29.03-10.57-.18-5.63-.43-7.92.9-17.64-.81-7.12.22-8.64.18-9.55.07-6.97-.31-8.74.83-8.47-.62-9.05.74-8.64-1.14-15.07.81-10.51-.18-6.35-.62-8.19.97-10.4-.93-6.28-.17-8.1.37-7.93-.12-8.11.58-10.9-.04-7.47-.78-7.17.37-17.1-.4-7.78.1-8.8.38-8.55-.41-6.22.16-10.14.95-10.13-1.02-5.81-.19-6.84.47-9.91.5-8.7-.2-9.05.22-8.05-.59-8.22.33-8.54-.57-6.87.17-8.89.32-9.33.06-8.1-.48-6.24.12-8.76.66-10.93-.11-7.28-.74-7.33.42-9.75-.34-5.94-.05-9.76.94-7.87-.86-8.13 1.06-9.07-.87-7.73.56-9.44-.53h-6.28l-8.26.63-10.23.02-9.07-.44-6.71-.16-7.44.22-10.05.2-7.87-.55-8.05.39-8.77-.47-6.69.13-9 .45-8.3-.21-8.56.44-10.95-.48-6.97-.63-5.52.07-9.32.92-9.7-.51-7.39.04-9.97-.19-5.98-.29-7.9.86-11.24-.24-7.74-.42-14.04-.24-9.67 1.25-8.99-1.05-7.19.56-9.04-.34-8.38.24-9.41-.38-6.05-.17-7.61.72-10.42.21-7.8-.37-9.31.49-7.25-.88-7.38.97-10.96-.56-6.28-.43-7.64.77-11.87-.34-6.7-.6-6.44.21-8.67.5-9.44-.14-8.6-.34-6.35-.05-9.1.8-9.42-.56-8.52.12-8.02-.6-6.63.21-7.51.47-11.12.44-8.6-.93-15.36.33-8.02-.21-16.25.73-9.2-.09-9.47.19-8.25-1.03-6.19.14-16.04.66-10.05.24-8.42-.47-8.04.13-7.93-.3-7.7.3-8.37-.01-9.51.32-9.85-.77-5.66-.35-7.75.71-10.11-.27-7.71-.42-6.85.26-9.2.56-8.87-.37-8.45.19-8.99-.46-7.84-.17-6.82-.02-7.46.39-9.13.7-11.57-.33-6.24-.57-8.05.48-8.74-.64-5.77.18-10.59 1.04-9.45-1.24-5.42.08-9.24.64-9.33-.42-7.53.01-7.13.09-8.85.6-9.73-.23-7.07-.27-8.98.6-8.3-.69-8.75.59-8.22-.98-5.59.4-10.29.63-8.81-.5-8.95.24-6.78-.71-7.5 1.03-10.44-.5-7.74-.11-7-.21-8.1.72-11.4-.24-6.39-.46-8.68.53-8.81-.89-5.62.15-9.93.79-8.67-.73-8.13.44-7.89-.58-8.21.67-8.72-.6-17.19.91-7.13-.84-7.61 1.08-10.06-.67-7.95.11-8.27-.37-7.32.11-8.63.35-9.4-.28-7.43-.43-8.28.42-8.7-.51-6 .15-10.37.99-7.89-.96-8.39 1.06-9.81-1.28-6.2.1-8.33-.07-8.57.31-8.3-.21-7.32.26-9.57.23-7.48-.26-8.5.65-16.45-.8-7.46.62-18.32.15-10.11-.4-5.89-.47-6.97.63-9.48.07-9.98-.08-7.09-1.04-8.55 1.05-7.51-.56-8.13.74-9.72-.62-6.03-.02-8.78 1.41-19.26-.13-6.74-1.08-6.59.13-9.11.52-8.97-.29-9.21.12-7.65-1.27-7.68 1.12-9.62-.71-5.42-.08-9.44 1.17-9.59-.94-7.34.23-8.44-.28-7.4.16-9.66.34-8.41-.69-6.6.17-7.82.33-10.13.61-8.88-.88-5.55.11-9.21.78-11.13-.48-7.03-.55-6.87.1-7.28-.05-9.53 1.01-9.79-.91-6.85.02-7.49-.17-7.84.63-10.07.07-8.94-.33-6.29-.32-9.26 1.04-9.9-1.22-6.62-.03-7.63.13-8.43.25-7.54-.04-9.26.74-9.71-.68-5.9-.09-8.69.76-9.25-.38-8.85.19-7.28-.59-7.39.62-9.75.3-16.34-1.07-7.69.37-9.2.09-8.01-.38-6.49.17-9.3.63-16.46-.71-8.62.71-8.63-.61-7.62.41-9.45.14-7.69-.46-8.7.45-8.88-.8-5.8.07-9.86.74-8.14-.76-7.41.63-9.04-.32-7.19.24-10.25.09-7.38-.49-7.55.46-9.35.21-7.55-.34-8.1.56-9.13-.31-9.09.13-8.9-.8-6.22-.19-6.67.32-9.44.78-10.04-.33-7.16-.16-8.72.25-8.78-.45-8.82-.05-7.01-.32-6.25.23-9.29.86-10.19-.33-15.72-.34-7.65.1-8.25.28-8.41-.05-9.86.25-7.37-.85-6.59.58-10.63.01-8.09-.55-15.31.2-9.39.26-7.01-.52-8.82 1.02-8.83-1.01-6.67.49-8.81-.03-7.62.28-8.72.21-9.8.02-7.73-.38-7.97.28-11.02-.39-5.43-.55-7.09.82-9.18-.16-8.3.39-9.35-.17-8.02.05-8.82-.24-8.57-.33-6.82-.33-6.58.44-9.79.43-8.57-.13-9.11.23-8.85-.61-15.8-.21-6.92-.18-8.6.73-8.95-.42-7.59.3-10.68-.08-7.76-.48-5.71-.13-8.62.97-10.64-.49-6.85-.44-8.15.47-7.76.03-9.1.33-9.56-.45-6.44-.22-8.41.5-9.29-.39-14.64-.12-9.18.85-8.86-.64-8.58.45-9.24-.86-6.13-.07-7.37.36-9.55.3-7.67-.12-9.92.71-7.84-1.03-6.62.69-9.15-.11-8.26.34-9.12-.1-7.71-.21-8.61.36-9.23-.44-6.55-.12-8.46.53-9.72-.28-7.4-.35-17.09.72-8.79-.68-6.39.05-9.93.44-7.49-.76-7.92.79-8.41-.63-8.85.8-9.09-1.05-6.89.24-8.2-.16-7.35.3-8.93.45-10.44-.12-8.28-.4-6.68-.2-7.92.29-16.45-.14-8.84.39-8.29.01-10.31-.12-6.01-.41-7.93.64-9.73.2-8.03-.57-16.52.6-9.76-.63-6.82-.54-7.22.34-7.58-.06-8.97.89-9.41-.5-8.92.2-7.78-.76-7.17.41-17.73-.37-6.07-.03-8.95 1.08-10.13-.51-7.57-.04-7.48.19-10.15.03-7.83-.56-6.68.24-9.59.53-9.47-.58-7.12-.11-9.03.16-7.02-.41-7.25.79-11.18.18-7.52-.63-8.66.61-8.45-.9-7.22.46-9.82-.27-6.89-.27-1.12.09V31.5h14576.32V14.15h-.39z" class="cls-1"/>
</svg>
