<svg xmlns="http://www.w3.org/2000/svg" id="レイヤー_1" data-name="レイヤー 1" viewBox="0 0 258 90.74">
  <defs>
    <style>
      .cls-1{fill:#fff;}.cls-2{fill:none;stroke:#000;stroke-linecap:round;stroke-miterlimit:10;stroke-width:2px;}
    </style>
  </defs>
  <path d="M147.84 10a2.78 2.78 0 0 1 4.25.87c.29.76.72 1.47 1.06 2.22.17.36.26.76.39 1.14.37 1 .78 2 1.11 3 2.53 7.77 5.12 15.65 7.69 23.46 1.47 4.46 3.35 8.68 5.09 13a6.4 6.4 0 0 1 .42 3.84c-.33 1.22-1.31 1.26-2.38 1.63s-2.14 1.17-3.31 1.27c-1.64.14-1.85-1.42-2.21-2.63-.75-2.47-1.71-4.85-2.39-7.35s-1.25-5-1.95-7.5c-1.3-4.64-3.27-9.19-4.57-13.89-.58-2.09-1.07-4.21-1.61-6.31-.42-1.63-.85-3.25-1.29-4.87a2 2 0 0 0-.26-.44 2.33 2.33 0 0 0-.41.29c-.71.76-.67 2.28-1 3.24-.83 2.78-1.88 5.52-2.54 8.35-.72 3.06-1.27 6.15-1.86 9.23l-.1.53c-.19 1-.56 1.86-.82 2.81-.54 2-.71 4-1.31 6-1.14 3.73-2 7.53-2.94 11.31a3.34 3.34 0 0 1-1.09 2.06c-1.45.23.43-5.78 1.12-8.64q.54-2.25 1.15-4.49c.91-3.32 1.86-6.62 2.77-9.94.51-1.85.73-3.73 1.24-5.57 1.45-5.23 2.2-11.35 3.6-16.62a50.21 50.21 0 0 1 1.59-5.24 2.17 2.17 0 0 1 .56-.76zm18.8 46.65c-1.16-1.54-.93-3.69-2.35-5.15a2.15 2.15 0 0 0-.16.93c.16 1.59 1.3 2.9 1.28 4.54 0 0 .05.07.07.09zM150.65 13a1.93 1.93 0 0 0 .16 2c.69-1.12.67-1.33-.16-2zm32.11 24.73c.25 0 .88-1.13 1-1.35 1.15-1.59 3.17-3.9 5.42-2.79 2.68 1.32 2.76 6.83 2.75 9.26a14.76 14.76 0 0 1-4 10.48 3 3 0 0 1-2.78.17c-.59-.34-1.23-.61-2-1 .26.13 0 1.22-.13 1.42-.48 1-.2 2.33-.81 3.3a1.29 1.29 0 0 1-1.61.56 1.59 1.59 0 0 1-.54-.59C179 55.34 179 53.14 178.85 51c-.23-2.49-.51-5-.71-7.48-.14-1.74-.2-3.49-.23-5.24v-4.73c0-1-.06-1.9 0-2.85.08-2.11.22-4.22.32-6.33v-2a16.91 16.91 0 0 1 .43-4.78 1 1 0 0 0 .07-.47c-.13-.77.48-1.09.93-1.42a.87.87 0 0 1 1.32.73c.07.56.31 1.1.38 1.65s-.08 1.43-.05 2.14c.19 5 .64 10.18 1.1 15.21.05.58 0 1.17 0 1.76a4.29 4.29 0 0 0 .06.46zm3 14.23c2.78-3.38 2.53-11.38.77-14.86-.14-.28-.34-.62-.52-.94-.35-.59-2.84 4.22-2.94 4.85s-.16 1.28-.23 1.93c-.23 1.89.1 3.71 0 5.59-.07 1.59 1.1 2.3 2 3.23.16.17.53.13.88.24zm-5.33-8.59c.81-1 .79-8.24-.1-8.92-.08.92-.19 1.74-.2 2.57a23.93 23.93 0 0 1 0 4.52 5.55 5.55 0 0 0 .25 1.83zm59.7-8.51c-1.2.11-1.17.1-1.07 1.38.06.7 0 1.41 0 2.11a1.11 1.11 0 0 0 .47.73c.36.23.43-.22.63-.39a8.51 8.51 0 0 1 1.61-1.22c1.72-.88 1.09 3.25.8 3.88-.65 1.42-2.16 3-3.85 2.9-2.59-.1-4-4.91-4.27-7a14.73 14.73 0 0 0-.32-1.85.73.73 0 0 0-.56-.42 4 4 0 0 1-2-.4c-.42-.21-.42-.4-.27-.74a2.53 2.53 0 0 1 2.13-1.11c.67.1 1-.15 1-.88v-1.56c.08-1.05.13-2.11.28-3.15.26-1.7 2.33-4.68 4.35-3.15a2.06 2.06 0 0 1 .7 1.78 23.08 23.08 0 0 1-.61 2.39 16.14 16.14 0 0 0-.08 3.18v.41c-.07 1.14-.07 1.12 1.1 1.2a3.32 3.32 0 0 1 1.21.27c.23.11.54.6.49.67a3.62 3.62 0 0 1-1 .91c-.13.2-.47.06-.74.06zm-35.85 15.35c-2 .22-2.79-.7-3.58-2.23-1.65-3.18-1-6.87-.22-10.19a2.67 2.67 0 0 1 1-1.58c1.89-1.34 4.7.81 6.22 1.85 1.92 1.31 2.46 3.59 2.32 5.8a11.23 11.23 0 0 1-.74 4.12c-.81 1.71-2.31 2-4 2.23a6.54 6.54 0 0 1-1 0zm-1.93-9.32a10.93 10.93 0 0 0-.39 3.78 10.75 10.75 0 0 0 .67 2.63.77.77 0 0 0 .22.32.74.74 0 0 0 .66 0c2.52-.8 1.79-3.7 1.34-5.62a3.08 3.08 0 0 0-.14-.65c-.2-.41-.42-1.33-.85-1.55-.74-.37-1.21.2-1.51 1.09zM224 39.83c.88 1.23-.6 3.26-1.52 4.17a6.11 6.11 0 0 1-2.81 1.66 4 4 0 0 1-4.67-2.78 12.75 12.75 0 0 1-.22-4.3c.1-1.25.39-2.72 1.54-3.25.65-.3 1.6-.06 1.75.64a1.88 1.88 0 0 1-.05.73c-.28 1.44-1 3.4.61 4.34a1.91 1.91 0 0 0 2.47-.35 8.15 8.15 0 0 0 1-4.26v-1a2.55 2.55 0 0 1 3.56-2.19 1.05 1.05 0 0 1 .5 1.53c-1.44 2.41 1.16 5 1.71 7.28.12.47.45.72.28 1.26a1.12 1.12 0 0 1-.81.54c-1.38.19-2.17-.65-2.82-1.73-.37-.46-.09-1.69-.52-2.29z"/>
  <path d="M152.52 45c-1.19-.19-2.38-.42-3.58-.56-1-.12-2-.1-3-.22a1.3 1.3 0 0 1-.93-.49c-.17-.38-.19-1 .39-1.13a4.4 4.4 0 0 1 1.79-.15c1.57.29 3.12.66 4.67 1.07a4 4 0 0 1 1.22.68c.14.1.17.36.25.55-.18.06-.35.14-.53.19a.83.83 0 0 1-.27 0z"/>
  <path d="M127.37 87.32c.27-12.23-5.94-35.45-27.5-45.57s-29.4-7.27-37.13-6.57c-8.25.75-31.56 8.9-41.75 22.21A115.62 115.62 0 0 0 5.18 85.48s31.75 1.79 49 1.67 44.54 1 50.06 1.11c6.51.11 23.13-.94 23.13-.94z" class="cls-1"/>
  <path d="M7.47 77.59l-2-.57c5.74-13.18 17-31 38-40.76 21.39-10 48.71-4.53 61.28 2.53s25.15 26.94 25 39.41l-2 .49c.16-11.89-11.9-31.4-23.93-38.16C91.55 33.69 65 28.4 44.3 38.08 23.85 47.62 13.08 64.73 7.47 77.59z"/>
  <path d="M55.21 50.92c-2.25 1.23-3.59 5.15-1.69 6.85 1.85.74 4.06-.85 4.4-2.82S58 51 55.21 50.92zm42.32 6.16c-.89 1.08-1.79 4.91.36 6.28 1.79 1.14 4.35-.87 4.18-3s-.66-3.62-2.77-3.84c-.01.02-.88-.52-1.77.56z"/>
  <path d="M70 56.94c.93 2.24 3.38 3.55 5.87 4.1s6.75.23 7.93-2.57" class="cls-2"/>
</svg>
