<svg id="C6Uoje1UoAEsXmo_画像" data-name="C6Uoje1UoAEsXmo 画像" xmlns="http://www.w3.org/2000/svg" viewBox="0 0 516.59 251.99"><title>logo_shirokuma</title><path d="M49.25,107c-2.48-2-5.13-4.09-7.62-6.3-3.48-3.09-4.8-7.22-5.28-11.7-.2-1.81-1-3.81-.53-5.4.93-2.94,1-6,2.15-9,2.19-5.58,6-9.3,10.6-12.24C52.3,60,56.71,60.55,60.86,62c6.86,2.37,11.91,6.47,13.2,14.08,0,.21.28.4.46.57s.4.28.12.09C77,75.28,79.13,74,81.2,72.64c.91-.61,1.56-1.64,2.5-2.16C88.88,67.57,94,64.61,99.38,62c1.76-.86,4-.67,6-1.1,1.17-.25,2.24-.94,3.4-1.19,2.78-.59,5.59-1,8.39-1.53,3.33-.62,6.65-1.29,10-1.89,1.25-.22,2.53-.29,3.79-.46,3.87-.51,7.74-1.38,11.62-1.43,3.05,0,6.12,1,9.18,1.49.77.13,1.55.22,2.76.39a27.5,27.5,0,0,1-4.12-12.6,3,3,0,0,1,.4-1.15c1.06-2.58,1.74-5.41,3.28-7.65,1.68-2.45,3.75-4.8,6.89-5.77a30.51,30.51,0,0,0,4.46-2c4.6-2.29,8.94-1.26,13.56.36a29.65,29.65,0,0,1,14.62,11c4,5.66,7.36,12.07,5.27,19.46-.77,2.73-2.72,5.12-4,7.73A2.51,2.51,0,0,0,195,68c1.88,1.69,4,3.13,6,4.71,5.76,4.6,11.92,8.74,16.44,14.75,2,2.65,4.54,4.9,6.4,7.62a89.91,89.91,0,0,1,4.92,8.95,27.87,27.87,0,0,1,2.21,4.6c1.29,4.15,3.06,8.31,3.37,12.56.38,5.16,1.62,10.31.65,15.62-.65,3.59-.35,7.35-.55,11,0,.43-.58.82-1.13,1.54l.87,1c-.47,1.14-.84,2-1.2,2.94-1.22,3.1-2,6.5-3.77,9.24-2.57,3.92-4.74,8.18-8.34,11.4s-7,6.71-10.42,10.08c-4,4-9.33,6-13,10.41-1.91,2.27-5.37,3.25-8.15,4.77-2.45,1.35-4.9,2.71-7.41,3.94-1.88.92-3.85,1.65-5.79,2.46-4.4,1.83-8.72,3.92-13.24,5.35-2.19.69-4,2.65-6.75,2-.9-.2-2.08,1.12-3.2,1.57A72.13,72.13,0,0,1,146,217c-1,.28-2.12-.24-3.11,0-1.37.3-2.62,1.17-4,1.42-3.69.68-7.32,1.55-11.21.57-5.54-1.4-11.2-2.35-16.82-3.42-3.67-.7-7.41-1.1-11-2-4.25-1-8.38-2.6-12.65-3.48a28.34,28.34,0,0,1-10.1-4c-2.27-1.5-5.13-2.39-6.88-4.32-2.06-2.28-4.9-3.41-6.89-5.73s-4.6-4.31-6.86-6.51c-3.34-3.26-6.69-6.52-9.85-9.95-1.13-1.23-1.62-3-2.58-4.43-3.18-4.66-4.35-10.09-5.24-15.42a97.41,97.41,0,0,1-1.75-15.69,59.36,59.36,0,0,1,.57-10.34c.42-2.41,1.82-4.66,2.83-7,.5-1.15,1.2-2.21,1.68-3.37,1.09-2.65,2-5.36,3.17-8C46.59,112.51,48,109.63,49.25,107Zm5.29,2.68c-2.06,1.9-3.37,4.95-4.22,7.74s-3.18,8.22-3.18,8.22a36.6,36.6,0,0,1-2.58,6.13c-1.35,2.19-1.07,5.39-1.52,8.14a14.17,14.17,0,0,0-.56,3c.09,1.4.77,2.78.78,4.17,0,2.73-.55,5.47.55,8.14,1.84,4.5.68,9.79,3.94,14,1.47,1.9,2,4.42,3.29,6.6,2.37,3.91,6.26,5.93,8.9,9.25.82,1,3.1,1.35,2.48,3.53-.06.22.75.73,1.18,1.06,2.61,2,5.2,4,7.85,6,3.1,2.29,6.19,4.62,9.42,6.71a25,25,0,0,0,6.44,3.15c3.86,1.12,7.87,1.74,11.8,2.63,5.15,1.17,10.27,2.42,15.42,3.58,2.08.47,4.2.8,6.31,1.13a7.33,7.33,0,0,0,3.2.21,10.46,10.46,0,0,1,6.33-.1,17,17,0,0,0,7.38-.1c4.33-.89,8.58-2.15,12.82-3.44,4.56-1.38,9.09-2.85,13.56-4.48,4.71-1.72,9.41-3.55,14-5.61a85.77,85.77,0,0,0,9.1-5c2.74-1.66,5.37-3.52,8-5.33,1.35-.92,2.62-1.95,4-2.87,2.54-1.74,5.33-3.19,7.6-5.22,3.43-3.07,6.55-6.5,9.72-9.86a21.62,21.62,0,0,0,3.93-5c.8-1.63,2.3-2.53,3-4.34,2-4.83,4-9.47,4.45-14.84.55-6.66,1.64-13.35.7-20-1.24-8.73-2.9-17.28-7.91-25.09a74.67,74.67,0,0,0-10.47-13.58,111,111,0,0,0-12.06-9.57c-2.38-1.74-5.61-2.6-7.44-4.74-2.06-2.4-5-3-7.27-4.66-2.58-1.89-6.19-2.36-9.34-3.48-1.35-.48-2.65-1.11-4-1.54-2.94-.93-6,.26-9-.56A82.3,82.3,0,0,0,148,61.76a77.22,77.22,0,0,0-11.46-.41c-3.08.16-6.1,1.15-9.17,1.62-6.32,1-12.7,1.59-19,2.8-3.19.61-6.22,2.11-9.28,3.32a89.72,89.72,0,0,0-9.94,4.3,59.26,59.26,0,0,0-7.62,5.45c-2.29,1.78-4.5,3.66-6.68,5.58-1.89,1.66-3.7,3.41-5.48,5.19-.93.93-1.72,2-2.77,3.22l-.36,0c-.76.93-1.21,1.49-1.68,2-1,1.21-2.39,2.26-3,3.65ZM192.67,54.14c-.89-2.9-.58-5.36-1.62-7.55-2.5-5.26-5.82-9.84-11.58-12.06s-11.23-2.64-17.17.81c-3.12,1.81-4.2,4.13-5.19,6.78-1.81,4.86.87,8.77,3.47,12.56a2,2,0,0,0,.9.83q3.42,1,6.88,1.87c2.11.53,4.32.77,6.35,1.5,4.14,1.48,8.2,3.19,12.27,4.86,1.13.46,2.43,1.37,3.1-.23C191.37,60.39,191.61,57.15,192.67,54.14ZM67.8,76.59l.56-.13a18.25,18.25,0,0,0-1.57-3.95,13.85,13.85,0,0,0-15.94-5.23A9.4,9.4,0,0,0,46.94,70a24.49,24.49,0,0,0-2.49,4.33c-.22.39-1.22,6.07-1.47,6.3-1,1,.84,1.12.17,2.25a6.08,6.08,0,0,0-.42,4.7c.88,1.68-1.73,3.9,1,5,.9,4.17,4.07,6.33,7.46,8.19a2.69,2.69,0,0,0,2.49-.12c2.23-2.91,4.11-6.09,6.38-9,2-2.54,4.41-4.76,6.56-7.2.8-.91,1.85-2,1.94-3.06C68.72,79.83,68.1,78.19,67.8,76.59Z"/><path d="M439.55,173.68c.67-1.33,3-2.47,4-3a2.16,2.16,0,0,1,1.71,0c1.75.67,2.42.08,2.35-1.7a14.07,14.07,0,0,0,0-2.72c-.2-.81-.37-2-1.92-1.36a32.44,32.44,0,0,1-3.77,1.17,2.78,2.78,0,0,1-2.85-1.68c.72-3.89,4.19-3.32,6.76-4.28a3.32,3.32,0,0,0,1.76-1.83c.27-.8-.09-1.8-.1-2.72,0-3.69,0-3.63-3.49-4.15a8.71,8.71,0,0,1-3-1.21,1.52,1.52,0,0,1-.27-1.42,7.54,7.54,0,0,1,2.71-1.89,26,26,0,0,1,4.43-.6l-.41-6.62c1.17-.75,3.79-2.07,5.07-.23,1,1.38,1.21,2.73,1.66,4.91.09.43,1.68.38,3.59.59,0-.06,2.16-.19,2.5.25.54.7,1,.25.69,2.63.31,1.62-1.22,3.84-4.13,2.68-1.83-.73-2.72.54-2.72,2.35a32.8,32.8,0,0,0,.13,3.45c.21,2,1.71,1.58,2.67,1,1.37-.8,2.48-1.82,4.29-1.78,1.53,0,3.13,1.27,2.6,2.65s-.55,3.7-2.78,3.73a7.07,7.07,0,0,0-3.5,1.25,30,30,0,0,1-2.88.92c-.11,2.11-.26,4.63-.33,7.16,0,.15,2.91.78,3.21.92,3.46,1.6,4.55,2.75,8,4.34a14.46,14.46,0,0,1,2.8,1.26c1.84,1.4,2.8,3.15,1,5.61-1.72.5-3.94,1-6.3-.59a14,14,0,0,1-5-3c-3.25-2.84-5-1.75-6.7.43a7.33,7.33,0,0,1-2.56,2.14c-4.39,2-6.79-.42-9-3.16C439.8,179.18,438.89,175,439.55,173.68Z"/><path d="M317.84,106.77c-.21-1-.58-2-.76-3a11.39,11.39,0,0,1,0-2h0c0-3.37-.06-6.74,0-10.11a9.67,9.67,0,0,1,.75-3.86c.34-.7,1.71-1.55,2.31-1.35,2.22.71,4.08-.18,6-.85a11.1,11.1,0,0,1,7.92-.05,10.34,10.34,0,0,1,4.4,4.61,24.61,24.61,0,0,1,2.39,14.41c-.2,1.79-2,3.87-3.64,4.87a31.57,31.57,0,0,1-3.65,1.7,10.34,10.34,0,0,1-10.5-.25Zm14.83-2.28c.4,0,.69-1.28,1.07-2,.12-.21.45-.35.48-.55a9,9,0,0,0,.29-2.56,7.75,7.75,0,0,0-.87-2.64c-1-1.81-1.62-4.24-3.16-5.16-2.1-1.25-4.67.22-6.57,1.5-.84.57-.8,2.47-1.08,3.78a7.25,7.25,0,0,0-.15,2.16c.09,1,.07,2.54.59,2.78C325.25,105.68,328.67,105.84,332.67,104.5Z"/><path d="M421.66,80.18c.31-.64.68-1.25,1-1.78a4.65,4.65,0,0,1,3.51-1.76c1.09-.75,2.31.2,2.79,1.5a5.56,5.56,0,0,0,3.55,1.2c2.13.22,5.71.44,7.2,1.68s1.79,3.58,1.68,5.72a22.31,22.31,0,0,1-.25,3c-.33,1.87-.74,3.73-1.14,5.7a17.84,17.84,0,0,0-1.16,3.87s-2.75,7.5-6.7,10.83c-1.8.92-2.21.82-2.89,1.32-.88.65-5.44-.09-5.83-1-.11-.32.2-.76.23-1.14a3.34,3.34,0,0,1,1.33-2.15,10.34,10.34,0,0,0,2.5-1.41,32.46,32.46,0,0,0,4.63-5.62,23.4,23.4,0,0,0,2.38-6.81A52.55,52.55,0,0,0,434.8,86a55.56,55.56,0,0,1-6.41-1.18c-.62,3.44-1,6.65-1.86,9.74-.19.7-2,1.55-2.8,1.34a5.44,5.44,0,0,1-3.28-2.37c-1.19-2.44.63-4.9.59-7.4Z"/><path d="M343.56,182.32c-2.82-2.33.54-4.87,3.88-4.51a15.5,15.5,0,0,0,4,.35,2.84,2.84,0,0,0,1.92-1.86c.38-3.18.62-6.45-1.68-9.15a4.44,4.44,0,0,0-2.08-1.48c-1.7-.42-3.56-.29-5.18-.88a3.78,3.78,0,0,1-2.28-2.49c0-.88,1.14-2,2-2.7,1.25-1,3.26-1.28,4-2.47,1-1.68,2.85-4.14,3-6.16.05-.52-3.1-.87-4-1.07a10.46,10.46,0,0,0-3.68.36,11,11,0,0,0-2.73.24c-1.54-.36-1.66-.95-1.54-1.9.63-2.23,4.24-2.52,6.41-2.61,3.12-.14,6-.5,8.78.54a4.27,4.27,0,0,1,2.25,2.07c.84,2.7-.24,3.2-.59,5a25.08,25.08,0,0,1-5.22,7.12c.32.18,3,.83,3.8,1.54s1.47,1.45,2.24,2.09c2.42,2,3,4.56,2.86,7.59-.17,3.52-.88,6.89-3.15,9.51-1,1.13-3.07,1.37-4.7,1.84C348.74,184.18,346.68,183.79,343.56,182.32Z"/><path d="M307.66,168.49c1.54,0,1.93,1.76,2.36,2.72a4.79,4.79,0,0,1,0,1.74c0,1,.06,2,.05,3a7.38,7.38,0,0,1-.13,2.42c-2.68,7.31-5.74,7.52-12.81,7.38a13.53,13.53,0,0,1-11.38-5.86,18.46,18.46,0,0,1-2.54-8.46,85.39,85.39,0,0,1,.35-12.25,25.59,25.59,0,0,1,1-6.09c.4-1.26,1.53-2.28,2.33-3.4,3.64,1,3.85,1.73,3.13,5.72s-1.68,8-1.15,11.89c.62,4.6,1.67,9.74,6.25,12.3,1.77,1,4.57.62,6.78.23a3.31,3.31,0,0,0,2.84-3.2c.15-1.24.36-2.61.46-4.4C305.37,170.64,304.43,169.41,307.66,168.49Z"/><path d="M478.37,98.06c-1.48,2.95-9.27,2.44-14.55,1.82.08,1,.2,1.89.21,2.8a53.23,53.23,0,0,1-.06,6.5c-.17,1.53-2,2.4-3.75,2.17-.76-.1-2.21-1.51-2.67-2-.73-.78-.75-2.27-.88-3.23-.31-2.38,0-4.94-.19-7.19-.26-5.75-.71-7.76.1-11.65.55-2.64-.16-5.59,2.07-7.78.28-.28.59-.79.87-.78,1.44.08,4.2,3.73,4.08,5.16-.21,2.59-.71,5.24-.33,7.76.15,1,2.22,2.13,3.6,2.45,3,.69,6.12.71,9.09,1.42A2.47,2.47,0,0,1,478.37,98.06Z"/><path d="M298.8,98.68a12.86,12.86,0,0,1-6.25-.25c-2.34-.55-4.45-5.2-4.23-7.74.25-2.94.61-5.86,2.21-8.34,1.38-2.15,1.71-3.65,4-4.66.09,0,3.88-1.3,4.94-.58,2,1.32,4.17,2.87,5.19,4.88a12,12,0,0,1,.48,10.36,9.87,9.87,0,0,0-.7,1.78c-.23,1.2-.93,1.3-1.91,2.81C302.22,97.44,300.41,98.17,298.8,98.68Zm0-5.5s.34-1.05.58-1.62a7.86,7.86,0,0,0-.5-7.81c-.41-.61-1.64-1.4-2-1.21a7.92,7.92,0,0,0-2.53,2.51c-.43.68-.2,1.76-.53,2.55-1.41,3.41-.45,5.78,2.73,6.39a4.58,4.58,0,0,0,1.51-.24C297.9,93.38,298.8,93.18,298.8,93.18Z"/><path d="M409.89,176.85a4,4,0,0,1,1.67,2c.51,1.5-1.09,3.08-2.66,2.92a31.45,31.45,0,0,1-6.23-1.46c-1.36-.43-2.57-1.57-3.93-1.75-4.28-.55-6.15-4.74-9.77-6.26-.34-.14-.46-2.12,0-2.65,1.78-2.06,3.9-3.83,5.79-5.8,2.19-2.29,4.18-4.79,6.44-7,1.53-1.5,2.39-3.92,5-4.09a5.61,5.61,0,0,1,1.2.09,1.94,1.94,0,0,1,1.67,2.33c-2.74,6.41-6.74,10.14-11.95,15.16C401.15,174.07,405.61,175,409.89,176.85Z"/><path d="M386.72,111c.08-2.29.43-3.73,4.13-3.41.51,0,4.05-.12,4.2-.84.23-1.13-.5-3.91-.5-4.75-1.41-.37-5,.13-5.9-.5-2.22-1.54-1.74-2.64.51-4.31,2.69-2,4.41-1.46,7.22-2.53a12.76,12.76,0,0,1,5.68-.68,2.16,2.16,0,0,1,2,1.64c-.08,1.65-.12,3-2,3.75-1,.39-3.61,1-3.67,1.46-.26,1.91.33,3,.6,4.94.05.37,1.51.14,2.23.23a18,18,0,0,0,4-.17,8,8,0,0,1,3.33,0c1.89,1.57,1.3,2.75.09,4.13-2.26.53-4.56.88-4.56.88s-3.74.22-5.7.48c-2.65.36-5.29,1.61-8,1.58A4.84,4.84,0,0,1,386.72,111Z"/><path d="M284,114.22c-3,1-4.24.46-6.19-1.36-.24-.06-.53-1-.38-1.32.72-1.63,1.76-3.13,2.35-4.79a56.28,56.28,0,0,0,1.82-6.85c.07-.31-.65-1.11-1-1.14-2.1-.13-4.13-.28-6.1,1.13-.87.62-2.65.43-3.79,0-.57-.22-1-1.91-.81-2.72a3.46,3.46,0,0,1,2.2-1.74c2.55-.75,4.86-2.09,7.75-2a8.91,8.91,0,0,1,6.43,3.16c2,2.07,1.4,4.38.89,6.72-.32,1.46-.75,2.89-1.19,4.55Z"/><path d="M372.92,97.8c-.11,4.42-3.59,6.5-6.14,9.12a51.52,51.52,0,0,1-6.52,5.59c-1.25.91-2.28,2.9-4.45,1.68s-2.22-2.67-.25-4a31.59,31.59,0,0,0,3.35-2.31c1.68-1.46,3.22-3.1,4.87-4.61a72.87,72.87,0,0,0,5.75-5.19C370.8,96.65,371.71,96.71,372.92,97.8Z"/><path d="M375.63,84.53c-.69,2.34-1.69,2.74-3.65,1.35s-1.93-3.45-3.05-5.67c.22-.83-.88-2-.8-2.89.15-1.82-.8-4.12.93-4.64a3.38,3.38,0,0,1,4,3.2,4.7,4.7,0,0,0,1.71,3Z"/><path d="M354.39,88.51c-2.46-.8-3.63-1.62-6.09-2.38-.16,0-.25-.5-.28-.77a2.35,2.35,0,0,1,2.73-2.83c3.18.41,6.39.67,9.55,1.2a6,6,0,0,1,3,1.57c.37.36.15,1.83-.11,2.23-.87,1.29-2.41,1.68-4.09,1.94Z"/><path d="M351.05,96.68c.09-3,1.93-2.83,3.85-3.84,3-1.55,5.3-.6,7.83-.16a2.56,2.56,0,0,1,2.48,2.59c-.91,1.41-2.16,1.74-3.29,2.55-.28.2-.76.11-1.1.26C356.92,99.83,352.14,98.68,351.05,96.68Z"/><path d="M381.3,84.93a5.07,5.07,0,0,1-2.2-3.24c-.95-2.79-3.32-5.1-3.08-8.26.09-1.22,0-1.66,1.53-2.5,1.69.09,2.25-.5,3.75,2-.15.93.78,1.92,1,3,.52,2.56,1.34,3.39,1.5,6C384.23,83.69,382.62,84.64,381.3,84.93Z"/><path d="M138.09,146.64c-.88,3.53-2.11,7.67-3.13,9.4-1.17,2-2.68,1-3.71.36-1.3-.84-2.83-1.92-1.84-4.1,1.28-2.83,2.36-5.75,3.52-8.63a2.85,2.85,0,0,1-1.76-1c-.78-1.4-1.64-1.82-1.57-3.18.13-2.39,3.82-5.21,5.79-5.13a12.83,12.83,0,0,1,4.92.79,2.73,2.73,0,0,1,1.37,1.47,7.56,7.56,0,0,1,.4,2.82c0,.66-1.51,2.5-1.51,2.5s.44,1,1,2.2,1.47,1.76,3.38,2.79a49.2,49.2,0,0,0,5.29,2.2c.59,1.91-1.06,4.46-2.64,4.41C145.61,153.48,140.88,151.19,138.09,146.64Z"/><path d="M85,153.67c-2.4.06-6.23-3.1-5.57-4.88.54-1.45-.49-5.19,2.7-5.11a5.05,5.05,0,0,0,2.08-.75c2.34-1.24,4.44-.62,6,1.62,1.69,2.41,1.46,4.66-.67,6.52-.18.15-.63.23-.62.32C88.43,152.68,86.43,154.3,85,153.67Z"/><path d="M185.54,122.51c-.12-1.83.41-2.61,2-3.58.87-.53,4.41-1.27,4.63-1a5.1,5.1,0,0,1,3.6,2.87c1.27,3.75-1.76,5.32-3,7.71-.83,1.64-4.22,1.7-6,.6s-1.65-2.88-1.33-4.68A9.48,9.48,0,0,0,185.54,122.51Z"/></svg>