<svg id="レイヤー_1" data-name="レイヤー 1" xmlns="http://www.w3.org/2000/svg" viewBox="0 0 1500 171.02"><defs><style>.cls-1{fill:#fff;}.cls-2{fill:#eeffbd;}.cls-3{fill:none;stroke:#000;stroke-miterlimit:10;}</style></defs><title>title_contact</title><path class="cls-1" d="M959.5 122.67h37v36.74h-37zM1278.42 101.2c-20.22-3.35-22.45 17.28-15.82 35.22 17.7-9.28 32.61-26 15.82-35.22zM700.25 72.16c-17.53-6.31-21.06 13.9-15.12 27.89 14.26-8.28 23.59-19.29 15.12-27.89z"/><path class="cls-1" d="M1410.41 125.15c-23.14 4.75-43 19-64.37 29.07s-47.85 15.49-67.8 2.84c-6.69-4.24-12.29-12.6-15.63-21.64-7.16 3.76-14.78 6.3-20.95 6.63-21.4 1.16-41.24-10-60.45-19.53-62.26-30.83-141.08-45.72-198.59-6.73a48.84 48.84 0 0 0-8.36 7.13 59.6 59.6 0 0 1 16.46 18.65c-.71 12.59-14.71 15.59-22.57 2.21-3.08-7.26.49-14.79 6.11-20.86-20.76-15.62-51.21-19.76-78.4-20.49a802.2 802.2 0 0 0-154.21 10.74c-16.95 2.84-36.18 5.71-49.77-4.81a23.08 23.08 0 0 1-6.75-9.3c-12.27 7.12-28.19 12.21-39.6 12-24.7-.47-47.38-13.13-68.14-26.51s-41.5-28.13-65.57-33.65C451.68 37.11 385 83.55 329.75 56.11c-23.13-11.48-39.5-34.38-63.54-43.79-13-5.08-27.19-5.81-41.12-6.47C146 2.07 57.44 1.68-2 52.11v126h1506V133c-31.34-2.69-62.78-14.18-93.59-7.85z"/><path class="cls-2" d="M1278.42 105.2c-20.22-3.35-22.45 17.28-15.82 35.22 17.7-9.28 32.61-26 15.82-35.22zM700.25 76.16c-17.53-6.31-21.06 13.9-15.12 27.89 14.26-8.28 23.59-19.29 15.12-27.89z"/><path class="cls-2" d="M1410.41 130.15c-23.14 4.75-43 19-64.37 29.07s-47.85 15.49-67.8 2.84c-6.69-4.24-12.29-12.6-15.63-21.64-7.16 3.76-14.78 6.3-20.95 6.63-21.4 1.16-41.24-10-60.45-19.53-62.26-30.83-141.08-45.72-198.59-6.73a48.84 48.84 0 0 0-8.36 7.13 59.6 59.6 0 0 1 16.46 18.65c-.71 12.59-14.71 15.59-22.57 2.21-3.08-7.26.49-14.79 6.11-20.86-20.76-15.62-51.21-19.76-78.4-20.49a802.2 802.2 0 0 0-154.21 10.74c-16.95 2.84-36.18 5.71-49.77-4.81a23.08 23.08 0 0 1-6.75-9.3c-12.27 7.12-28.19 12.21-39.6 12-24.7-.47-47.38-13.13-68.14-26.51s-41.5-28.13-65.57-33.65C451.68 42.11 385 88.55 329.75 61.11c-23.13-11.48-39.5-34.38-63.54-43.79-13-5.08-27.19-5.81-41.12-6.47C146 7.07 57.44 6.68-2 57.11v126h1506V138c-31.34-2.69-62.78-14.18-93.59-7.85z"/><path d="M246.28 48c.81-.12 1.62-.26 2.44-.35 1.74-.19 2.84 1.07 4.11 1.89s2.34 2 3.67 2.75a7.24 7.24 0 0 1 3.08 4 33.31 33.31 0 0 1 1.71 6.46c.1.48-.53 1.1-.83 1.65a5.72 5.72 0 0 1-1.05-1.28c-.88-2.12-1.55-4.35-2.57-6.4-.51-1-1.63-1.72-2.41-2.63s-1.73-2.14-2.59-3.23c-1.72 0-3.5-.12-5.26 0a29.66 29.66 0 0 0-5.47.93 9.83 9.83 0 0 0-2.63 1.7.57.57 0 0 0-.2.49c.37 1.05-.47 1.66-.82 2.46a57.68 57.68 0 0 0-2.19 5.78c-.89 2.87-1.57 5.81-2.42 8.7-.94 3.19-2 6.33-2.92 9.53-.42 1.5-.38 3.14-.82 4.63a39.74 39.74 0 0 0-1.9 12.55c.1 3.35.26 6.72.69 10 .61 4.73 1.26 9.48 2.32 14.12a55.94 55.94 0 0 0 3.3 8.7 59.28 59.28 0 0 0 2.6 5.39c.81 1.49 1.82 2.88 2.66 4.35.51.89.81 1.91 1.34 2.79a29 29 0 0 0 3 4.37 17.8 17.8 0 0 0 3.54 2.73 14 14 0 0 0 7.33 2 21.19 21.19 0 0 1 2.64.47 3 3 0 0 0 1.14.1c1.87-.46 3.69-1.14 5.58-1.45 2.72-.45 4.61-2.4 6.89-3.62 1.48-.79 2.59-2.3 3.79-3.56 1.58-1.66 2.88-3.63 5-4.63l.49.23a14.51 14.51 0 0 1-.78 2.13 35.7 35.7 0 0 1-2.54 4.2 16.33 16.33 0 0 1-3 3.21 52.29 52.29 0 0 1-5.91 4 17.86 17.86 0 0 1-6.11 1.81 30.36 30.36 0 0 1-8.87-.28 26.4 26.4 0 0 0-2.77-.65 5.76 5.76 0 0 0-2.27.76c-.63.29-1.16.77-1.78 1.09-1.17.6-2 .22-2.86-.78a26.86 26.86 0 0 0-3.13-3c-.88-.76-1.59-.31-2 .75a26.06 26.06 0 0 1-1.89 3.42 8.54 8.54 0 0 1-4.59-4.93 3.78 3.78 0 0 0-.73-1.4c-2.28-2.42-3-5.53-4.09-8.53a37 37 0 0 0-3.85-6.78 46.54 46.54 0 0 1-3.49-6.35 59.27 59.27 0 0 1-2.81-9.16 15.82 15.82 0 0 1-.38-4.13c.08-4.74 0-9.51.46-14.22.41-4.41 1.39-8.76 2.11-13.14.66-4 1.32-8 2-12 .25-1.59.42-3.2.66-4.8a10.54 10.54 0 0 1 3.81-6.29 6.54 6.54 0 0 0 1.17-2.16c.35-.77.63-1.58 1-2.36a12.87 12.87 0 0 1 1.17-2.54 12.17 12.17 0 0 1 2-1.81c.35-.31.73-.58 1.06-.91 1.65-1.65 3.21-3.31 5.66-4 1.56-.42 2.92-1.61 4.39-2.4a4.1 4.1 0 0 1 1.38-.31 16.35 16.35 0 0 1 2.38-.21 5.59 5.59 0 0 1 1.42.41zM369.67 101.26h3.8a3.14 3.14 0 0 1 3.4 2.78c.37 1.71-.32 2.45-2.05 2.2-1.13-.17-2.26-.37-3.39-.56-1.51-.26-1.9.14-2.05 1.62-.17 1.68-.89 3.37-.73 5 .18 1.92-1.07 3.78.07 5.75.39.68-.06 1.85-.14 2.8-.12 1.47-.31 2.95-.3 4.42 0 .3.68.73 1.12.88a2 2 0 0 1 1.54 1.81 2.36 2.36 0 0 0 1.28 1.48c.84.38.91.71.38 1.37-1.45 1.82-5.13 2.87-7 1.62a25 25 0 0 1-3.8-3.84c-.49-.52-.9-1.12-1.4-1.63a12.59 12.59 0 0 1-3.59-8.81c-.06-1.79-.21-3.59-.15-5.38a38 38 0 0 1 .56-5.1c.18-1-.25-1.43-1.13-1.61a1.94 1.94 0 0 1-.56-.13 9.92 9.92 0 0 1-1.83-1.13c.44-1.1 1-2.9 1.73-3 2.38-.39 2.63-2.1 2.66-3.69a21.42 21.42 0 0 1 2.15-8.52c.08-.19.13-.52 0-.64-1-1.13 0-1.39.75-1.67 1.14-.42 2.35-.67 3.44-1.19a7.93 7.93 0 0 0 1.81-1.58c1-1 3.05-1.18 3.77-.21a3.13 3.13 0 0 1 .45 2.07 5.52 5.52 0 0 0 .6 4.1 2.16 2.16 0 0 1 .24 1.92c-1.44 1.86-.83 4.09-1.32 6.1a22 22 0 0 0-.31 2.77zM287.09 123.44c.47-2.85.76-5.75 1.48-8.54a17.3 17.3 0 0 1 2.36-4.36c.13-.22.77-.29 1.11-.19a2.82 2.82 0 0 0 2.13-.12 8.91 8.91 0 0 1 6.79.17c1.39.56 2.45 2.07 3.52 3.27 1.2 1.36 2.2 2.9 3.38 4.28.59.68 1.65.83 1.78 2.05.17 1.51.84 3 .93 4.47a47.6 47.6 0 0 1-.08 8 25.23 25.23 0 0 1-1.7 6c-.72 1.9-2.58 2.47-4.34 3-1.46.45-2.94.84-4.41 1.23-2 .52-4.7-1-6.09-2.49s-1.82-3.38-2.35-5.27c-.3-1.08-1.35-1.93-2-2.94a17.52 17.52 0 0 1-2.51-8.56zm12.95.09h-.26v-.72c-.19-3.1-1.21-3.71-4.12-2.61a5.41 5.41 0 0 1-2.74.36c-1.14-.21-1.64.07-1.49 1.15a48 48 0 0 0 .91 4.88 7.28 7.28 0 0 0 1 2.16 23.77 23.77 0 0 1 2.3 3.32c.55 1.31 1.46.86 2.26.82s1.67-.11 1.72-1.29c.09-2.7.27-5.38.38-8.07zm-7.77-7.68l.47.35a14.25 14.25 0 0 0 1.49-1.55c.13-.18-.14-.64-.22-1-.28.11-.68.14-.81.34a17.19 17.19 0 0 0-.93 1.85zM461.86 95.22c1.87-.47 3.55-.77 5.13-1.33 1-.35 1.82-.48 2.38.47s.31 1.68-.62 2.44a9.07 9.07 0 0 1-5.41 2.2c-2 .11-2.76.7-3 2.71s-.92 3.84-.17 5.8a2.81 2.81 0 0 0 .29.77c1.65 2 1.66 2-.15 4.13 2.19.31 4.16 1 6.29.13a2.22 2.22 0 0 1 2 .12c.4.44.32 1.38.32 2.1a1.12 1.12 0 0 1-.53.82c-2.06 1.06-4.14 2.06-6.21 3.09a20.31 20.31 0 0 0-3.2 1.7 5.55 5.55 0 0 1-8.14-1.56 3.21 3.21 0 0 1 .52-3.86c.89-1.08.4-2.14.23-3.26-.29-1.94-.58-3.89-.68-5.84-.09-1.74.12-3.5.1-5.25 0-.29-.62-.85-.71-.81-1.61.81-3-.41-4.47-.48-.24 0-.51.08-.71 0a1.73 1.73 0 0 1-.77-.56c-.61-.94.82-3.55 1.93-3.47a10.34 10.34 0 0 1 2.61.55 2.74 2.74 0 0 0 3.59-2c.49-1.93 1.17-3.8 1.74-5.71s1.1-4.12 1.78-6.17a3.8 3.8 0 0 1 4.14-2.34c.25.06.44.32.68.45a7.57 7.57 0 0 0 2.18 1.05c1.19.16 1.46.77 1.32 1.76A4.93 4.93 0 0 1 464 84a21.54 21.54 0 0 0-1.9 8.63c-.01.66-.1 1.37-.24 2.59zM320.16 108a7 7 0 0 1 2.36 5.41c0 .4.41 1.08.69 1.12a1.72 1.72 0 0 0 1.32-.59 4.44 4.44 0 0 1 3.65-2 3.07 3.07 0 0 0 1.39-.66c1.72-1.07 2.53-1 3.63.76.58.92.92 2 2.16 2.31.24.07.41.73.45 1.13.32 2.87 1.17 5.33 4.09 6.68 1.38.63 1.22 2-.31 3.37a25.15 25.15 0 0 0 2.46 2.19 4.55 4.55 0 0 1 1.75 2.47c.63 1.77-.69 2.44-1.61 3.08a3.52 3.52 0 0 1-2.8.33 7.2 7.2 0 0 1-4.83-5.18 15.1 15.1 0 0 0-1.56-2.72c-1.27-2.46-2.5-4.95-3.73-7.43-.59-1.21-1.34-1.38-2.14-.31a21.09 21.09 0 0 0-2.51 4 5.48 5.48 0 0 0-.15 2.93c.4 2.49 1 5 1.48 7.43a3.64 3.64 0 0 0 .49 1c1.3 2.23-.5 3.69-1.4 5.31-.7 1.25-2 1.36-3.26.85a4 4 0 0 1-1.56-1.18c-1.89-2.36-2.56-5.22-3.26-8.09a99.1 99.1 0 0 1-2.37-14.85c-.07-.81-.26-1.61-.38-2.42-.21-1.47.66-2.17 1.85-2.71.57-.26 1.06-.69 1.61-1 .84-.41 1.68-.83 2.49-1.23zM391.94 102.72c2.4.83 3.2-.66 4.06-2 .67-1 2-1.23 3.48-.6 1.22.5.9 1.34.88 2.35a23 23 0 0 0 .69 4.4 8.49 8.49 0 0 1 .38 1.45c0 3 .65 5.8 2.93 8a12.91 12.91 0 0 1 1.83 1.88c.48.7 1.16 1.72.95 2.32a9.55 9.55 0 0 1-2.1 2.65c-.09.11-.41 0-.55.08-1.22.74-2.21 1.12-3.52-.18a5.93 5.93 0 0 1-2-3.2 2.6 2.6 0 0 0-.38-.91c-.87-1.34-1.82-2.64-2.62-4-.47-.81-.85-.78-1.43-.2-1.43 1.45-2.87 2.89-4.3 4.35-1 1-4.08 1.2-5.25.22a11.89 11.89 0 0 1-1.61-1.65 1.71 1.71 0 0 1-.25-1 22.41 22.41 0 0 0 0-3.06 3 3 0 0 1 .57-2.81 11.72 11.72 0 0 0 .79-1.51 28.13 28.13 0 0 1 3.58-5c1.01-.96 2.73-1.15 3.87-1.58zm0 5.69l-.45-.49c-.5.31-1 .62-1.5.94-1.46.94-1.64 2.62-2.31 4a4.73 4.73 0 0 0-.24 1.14c.45 0 1 .08 1.32-.14 1.94-1.34 2.67-3.36 3.24-5.45zM427.57 114.18l2 .81c-.2.27-.52.52-.48.68.33 1.36-.67 1.49-1.53 1.67-1.32.27-2.65.51-4 .65a17.11 17.11 0 0 1-7.49-.89 22.62 22.62 0 0 1-5-2.5c-1.65-1.06-1.86-3.8-.89-5.37.85-1.37 1.39-2.93 2.24-4.3.64-1 .94-2.39 2.35-2.86a1.76 1.76 0 0 0 .86-.93c.75-1.7 2.44-2.3 3.78-3.28a2.74 2.74 0 0 1 3.48 1.06 1.28 1.28 0 0 1-.13 1.15c-1.84 1.58-3.88 2.94-5.56 4.65-1.12 1.14-2 2.48-3.54 3.15-.11 0-.25.27-.22.34.58 1.21 0 2.78 1.25 3.78a11.94 11.94 0 0 0 9.58 2.58c.56-.08 1.14.05 1.71 0s1.06-.12 1.59-.18z"/><path class="cls-1" d="M1275 156.49c2.67-11.33 10-26 19.33-34s28.67-13.67 38-12.33 26.67 6.67 38.33 34.33c0 0-39.33 21.67-56.33 21.67s-31 .33-39.33-9.67zM1153.33 113.15c3.67-11.67 17-31.67 40.67-34.33s30.67 3.67 37.67 7 20.67 12.67 23.33 28.33a74.09 74.09 0 0 1-.33 27.67s-17.67 6.67-34 1-51.33-22.67-56.33-25-11.01-4.67-11.01-4.67z"/><path class="cls-3" d="M-10.37 59.74C48.9 1.65 142.19 1.88 225.09 5.85c13.92.67 28.14 1.39 41.12 6.47 24 9.41 40.42 32.3 63.54 43.79 55.26 27.44 121.93-19 182.07-5.21 24.07 5.52 44.8 20.26 65.56 33.63s43.45 26 68.14 26.51S716 87.15 700.25 71.16c-22.25-8-22 26.68-8.36 37.2s32.82 7.65 49.77 4.81a802.2 802.2 0 0 1 154.21-10.74c35.85 1 77.37 7.84 94.86 39.15-.71 12.59-14.71 15.59-22.57 2.21-4.47-10.51 5-21.59 14.47-28 57.51-39 136.33-24.1 198.59 6.73 19.21 9.51 39 20.69 60.45 19.53s60.35-28.9 36.77-41.85c-30.42-5-20.14 44.21-.19 56.86s46.42 7.19 67.8-2.84 41.23-24.31 64.37-29.07c38.83-8 78.67 12.37 118 7.74"/><path d="M1253.78 108c-1.33-5.32-7.14-14-17.11-21.22-10.86-7.92-23.49-11.81-35.54-11-33.77 2.37-44.8 28.41-44.9 28.67l-1.85-.76c.11-.27 11.62-27.45 46.62-29.9 28.24-2 51.48 20.69 54.73 33.7zM1367.27 137.31c-4.09-15.21-21-30.45-41-28.55-14.59 1.38-24.16 6.45-29.61 10.46a33.82 33.82 0 0 0-8.43 8.45l-1.31-1.52c.42-.7 10.19-16.65 39.17-19.39 21.12-2 38.52 13.52 42.83 29.51z"/><path d="M1184.66 99.18a2 2 0 0 1-1.32-1.67 3.76 3.76 0 0 1 .26-1.75 7.13 7.13 0 0 1 1.23-2.14 2.41 2.41 0 0 1 1.29-.9 1.81 1.81 0 0 1 1.78.84 3.28 3.28 0 0 1 .43 2c-.09 1.45-1.29 4.79-3.32 3.63M1230.18 112.25a3 3 0 0 1-.9-3.23 5.92 5.92 0 0 1 1.28-2.28 2.77 2.77 0 0 1 2.23-1.21 2.4 2.4 0 0 1 1.82 2.14 4.57 4.57 0 0 1-2.61 4.78c-.65.28-1.55.33-1.89-.42M1210 107.06a13.11 13.11 0 0 1-2.57-.25c-5.3-1.59-6.34-4.76-6.67-7.66a1 1 0 0 1 .3-.83 1 1 0 0 1 .85-.27 48 48 0 0 1 15.69 5 1 1 0 0 1 .06 1.73 14.37 14.37 0 0 1-7.66 2.28zm-7-6.81c.42 1.8 1.51 3.59 4.95 4.62a11.31 11.31 0 0 0 7.06-.92 46 46 0 0 0-12.01-3.7zM1305.6 134.44c.56 1 1.7 2.07 2.93 1.44.89-.85.61-2.33.27-3.72-.3-1.24-1.67-2.49-2.79-1.9a2.38 2.38 0 0 0-1 2.12 5.31 5.31 0 0 0 .61 2.06zM1342.7 126.24a3.89 3.89 0 0 0 .95 3.24c.82 1 2.82 1 3.19-.21a5.29 5.29 0 0 0-.08-2.46 2.55 2.55 0 0 0-2.5-2s-1.32.41-1.56 1.43zM1324.7 135.08a8.7 8.7 0 0 1-6-2.47 1 1 0 0 1 1.41-1.42 6.71 6.71 0 0 0 4.7 1.89 10.87 10.87 0 0 0 4.19-1.23 3.16 3.16 0 0 0 1.58-2.34 1 1 0 0 1 1.07-.92 1 1 0 0 1 .92 1.07 5.11 5.11 0 0 1-2.53 3.91 12.8 12.8 0 0 1-5.21 1.53z"/></svg>