<svg id="レイヤー_1" data-name="レイヤー 1" xmlns="http://www.w3.org/2000/svg" viewBox="0 0 1500 171.02"><defs><style>.cls-1{fill:none;stroke:#000;stroke-miterlimit:10;}</style></defs><title>title_product</title><path d="M615.42 29.57c1.24 0 1.73-.47 1.54-1.63-.36-2.24-.22-4.54-1.32-6.68-.68-1.32 1.25-4.75 2.65-5.09a1.55 1.55 0 0 1 2 1.64c0 1.77-.08 3.54.05 5.3s.51 3.32.74 5q.23 1.63.36 3.27c.11 1.4.68 1.8 2 1.3s2.91-1.19 4.39-1.74c3.12-1.14 6.4-1.13 9.64-1.07A17.64 17.64 0 0 1 648.94 34c1.65 1.41 3.34 2.77 4.93 4.24a7.83 7.83 0 0 1 1.35 2c1 1.88 2.1 3.76 3 5.7A32.33 32.33 0 0 1 660.95 65a27 27 0 0 1-1.15 3.38c-.43 1.48-.63 3.05-1.18 4.49-1 2.53-2.09 5-3.26 7.46a21.57 21.57 0 0 1-2.39 3.9c-1.79 2.29-3.73 4.44-5.57 6.69a22.25 22.25 0 0 1-7.22 5.53 9.5 9.5 0 0 1-6.5 1c-3.11-.63-3.07-.6-2.51 2.54.33 1.87.47 3.77.64 5.66.37 4.13.69 8.26 1.07 12.39.14 1.56.43 3.11.59 4.67a21.62 21.62 0 0 1 .08 2.86 42.21 42.21 0 0 0 1.12 9c.63 3.4 1.55 6.76 2 10.19a36.66 36.66 0 0 0 1.1 7.19c.3.93-.32 2.35-.91 3.32-.87 1.43-2.18 1.25-3-.24-.27-.5-.36-1.1-.63-1.61-.16-.29-.53-.69-.78-.68-2 .12-2.64-1.44-3.48-2.75a15 15 0 0 1-1.55-2.38 28.06 28.06 0 0 1-1.16-4.1c-.9-4-1.77-8-2.62-12.05-.61-2.84-1.15-5.7-1.76-8.55-.4-1.87-.89-3.73-1.31-5.6q-.73-3.29-1.39-6.6c-.32-1.59-.68-3.18-.87-4.79-.55-4.66-1-9.32-1.55-14-.56-5-1.15-10-1.69-14.93-.59-5.51-1.13-11-1.71-16.53-.56-5.32-1.18-10.63-1.72-16-.35-3.47-.33-7-1-10.41a18.17 18.17 0 0 1-.11-6.94 4.15 4.15 0 0 1 1.57-2.19c.29-.22 1.17.36 1.79.54 2.17.76 1.11 2.68 1.53 4.11zm20.35 4.12c-3.14 0-5.93 1.14-8.74 2.07a12.41 12.41 0 0 0-2.7 1.53c-1.52 1-1.38 2.44-1.28 4a2.33 2.33 0 0 0 1.61 2.29 1.47 1.47 0 0 1 1.12 2 31.13 31.13 0 0 0-.45 11.51c.22 1.89.71 3.74.93 5.63.45 3.83.74 7.69 1.22 11.52.28 2.24.8 4.44 1.15 6.67.25 1.59 0 3.34 1.68 4.41.28.18.27.85.33 1.3a35.73 35.73 0 0 0 .54 4.06 4.52 4.52 0 0 0 4.82 3.55c.48 0 1 .06 1.43 0a2.93 2.93 0 0 0 1.47-.37c1.77-1.48 3.46-3 5.18-4.57a19.13 19.13 0 0 0 2-1.83c1.53-1.83 3-3.69 4.44-5.62.34-.47.52-1.64.25-1.86-1.48-1.25-1.36-2.85-1.34-4.49 0-.79-.21-1.59-.23-2.38 0-1.86-.43-3.84.06-5.57.91-3.23.3-6.33-.07-9.46-.27-2.3-.8-4.57-1.26-6.85-.42-2.08-.88-4.16-1.39-6.22-.62-2.49-1.34-5-2-7.44a3.26 3.26 0 0 0-2.37-2.57c-2.12-.53-4.26-.89-6.4-1.31zm-5.77 95.2l.28-.21-.61-6.91h-.6v6.11c.05.37.61.68.93 1.01zM747.42 107.09c.24-3.24.46-6.34.69-9.43s.51-6.28.75-9.42c.06-.81 0-1.63.05-2.45.11-4.93.36-9.87.31-14.8-.05-5.92-.31-11.84-.57-17.76a4.79 4.79 0 0 1 2.83-4.77c.08 0 .2-.11.27-.08 1.71.85 2.15-.67 3-1.51.55-.51 1.47-.6 2.19-1a7.24 7.24 0 0 0 2.07-1.25c.61-.64.89-1.58 1.46-2.28 1.15-1.42 1.93-1.54 3.92-.57-.54 2.26-1.18 4.58-1.63 6.94-.55 2.86-.89 5.76-1.4 8.63-.34 1.92-.82 3.82-1.24 5.73-.06.28-.14.56-.18.85-.5 4.17-1 8.35-1.49 12.52-.41 3.4-.79 6.8-1.29 10.18-.53 3.58-1.25 7.13-1.75 10.72-.29 2.08-.32 4.2-.44 6.3s-.22 4.47-.33 6.74c0 0 .08.16.16.17 2.38.43 3 1.51 2.37 4.33-.2.86-.75 1.63-1 2.48a5.78 5.78 0 0 0-.3 2.36 2.7 2.7 0 0 1-3.36 3.06 38.06 38.06 0 0 0-3.81-1.21 2 2 0 0 1-1.79-2.08c0-.93-.43-1.12-1.2-1.21a41.25 41.25 0 0 1-5.66-.81 26.52 26.52 0 0 1-4.55-1.94c-.77-.37-1.45-.94-2.22-1.32-2.07-1-2.47-2.24-1.69-4.4a15.55 15.55 0 0 1 5.08-7.24 7.27 7.27 0 0 1 5.85-1.12.4.4 0 0 1 .25.13 45.44 45.44 0 0 1 2.67 4.23 1.84 1.84 0 0 0 1.98 1.28zm-6.35-.92c-1.93 0-3.16 1.6-4.49 3-.28.29-.14 1.22.1 1.71a2.93 2.93 0 0 0 1.39 1.38 41 41 0 0 0 6.28 2 2.24 2.24 0 0 0 2.83-2.56 1.31 1.31 0 0 0-.92-.88c-2.12-.06-3.16-.76-3-2.88.06-1.71-.81-1.67-2.19-1.76zM834.16 94.62c2.57.44 5 .68 7.23 1.3a2.18 2.18 0 0 1 1.69 3.08c-.46 1.47-1.05 1.85-2.56 1.46a27.12 27.12 0 0 1-2.67-1 8.1 8.1 0 0 0-1.6-.58c-2.29-.33-2.84.18-2.94 2.5 0 1.15-.22 2.29-.3 3.44-.05.77.06 1.38 1 1.59 1.8.38 2.35 1.3 1.58 3-1 2.27-1 4.21.87 6 .68.67-.12 2.52-1.14 2.85-2.5.81-6.5-.59-8-2.31-.22-.25-.56-.59-.52-.83.44-2.53-1.61-4.82-.64-7.44.23-.62-.29-1.47-.29-2.22a33.62 33.62 0 0 1 .2-3.72c.21-2-.24-2.6-2.19-2.74-1.43-.11-2.88-.07-4.29-.28a5.18 5.18 0 0 1-2-.94c-.61-.42-.64-.88.16-1.28a1.76 1.76 0 0 0 .82-1 2.66 2.66 0 0 1 3.68-1.65 6.45 6.45 0 0 0 1.74.63 1.93 1.93 0 0 0 2.48-2 34.55 34.55 0 0 0-.13-6.24c-.27-1.77 1.12-2.51 1.66-3.75.26-.62.74-1.28.67-1.88a18.48 18.48 0 0 1 .79-7.39c.94-3.13 3.32-4.4 6.45-3.48 2.26.67 2.21.66 1.71 3.25a14.64 14.64 0 0 0 .09 2.37c0 .65.08 1.57-.29 1.91-1.38 1.27-1.55 2.92-1.79 4.57-.54 3.73-1.09 7.46-1.59 11.2a5.92 5.92 0 0 0 .12 1.58zM674.1 102.49a29.61 29.61 0 0 1 2.8-3c2.8-2.28 5.79-4.22 9.59-4.33a4.15 4.15 0 0 0 1.24-.28c1.28-.45 4 .22 4.87 1.3.23.31.42 1 .26 1.18a3.58 3.58 0 0 1-1.68 1.18 36.12 36.12 0 0 1-5.39.82c-2.71.17-4.24 2.21-6 3.73a10.6 10.6 0 0 0-3.7 7c-.35 3.8-.71 7.65.31 11.45a8.31 8.31 0 0 1 .11 2.67c-.12 1.84-.41 3.66-.48 5.5-.05 1.47-1.37 1.55-2.18 2a1.38 1.38 0 0 1-2-.87 2.18 2.18 0 0 0-1.15-1 6 6 0 0 1-3.95-5.82 19.66 19.66 0 0 0-.61-3.3c-.24-1.22-.58-2.43-.69-3.66-.22-2.39-.3-4.8-.47-7.2-.2-2.82-.54-5.63-.62-8.45a20 20 0 0 1 .44-5.67 4.38 4.38 0 0 1 7.75-1.76c.77.92.74 2.68.73 4 .02 2.34.08 3.48.82 4.51zM719 102.6c0 2.63.1 5.26-.06 7.88a3.88 3.88 0 0 1-1.19 2.48c-1.78 1.52-2.2 3.78-3.37 5.61a5.24 5.24 0 0 1-1 1.28c-1.75 1.41-4.78.9-5.61-1.16-.69-1.7-1.85-1.56-3.12-1.41-1 .12-3.78-.88-3.63-1.56.36-1.62-1.46-1.94-1.48-3.19s.42-2.79-.14-3.72c-.9-1.5-.24-3.29-1.41-4.72-.44-.54 0-2 .34-2.93a16 16 0 0 1 2.17-3.46 7.55 7.55 0 0 1 2.3-2.13c2.1-1.08 4.37-1.86 5.9-3.83a1.24 1.24 0 0 1 .88-.34h4.57a2.81 2.81 0 0 1 2.35 1.89c.49 1.82 1.12 3.61 1.68 5.42.39 1.27.75 2.55 1.13 3.83zm-10.61-4.31c-2.8.23-4.08 1.35-4.41 3.68-.21 1.5-.32 3-.39 4.52a24.83 24.83 0 0 0 .07 4c.17 1.34 1.35 1.78 2.48 1.95.34.05 1.07-.6 1.13-1 .34-2 .58-4.05.74-6.09.23-2.35.3-4.67.42-7.07zM768.78 108.31c1 .1 1.75.18 2.51.24a1 1 0 0 0 .55-.08 6.86 6.86 0 0 0 3.07-5.84c-.06-1.22-.58-2.63 1.36-3.27.69-.23.93-1.68 2.13-1.29.86-1.3 1.41-2.85 3.3-2.81 1.71 0 2.39.93 2.46 3a38.6 38.6 0 0 0 .44 6.1 9.9 9.9 0 0 0 1.85 3.93 6.8 6.8 0 0 1 1.73 5c-.07.61-.83 1.67-1.18 1.64-1.89-.18-3.93.69-5.65-.74-1.15-1-2.25-1.88-2.13-3.63 0-.33-.75-.92-1.24-1a2.54 2.54 0 0 0-1.63.38 15.2 15.2 0 0 0-1.81 1.39c-.3.24-.71.4-.89.71-1.32 2.26-3.14 3.73-5.82 3.78 0 1.38.41 2.72-1.11 3.46-1.68.82-3.21.4-4.71-.91s-1.14-3-1.26-4.56a59 59 0 0 1 0-8.63 11.8 11.8 0 0 1 1.24-3.31 38.79 38.79 0 0 1 2.12-5 5 5 0 0 1 2.45-2c1.4-.52 3.25 1.83 3 3.4-.36 2.14-.58 4.31-.77 6.47-.09 1.16-.01 2.35-.01 3.57zM795.31 109.1l-.94.81c0-1.26-.06-2.34 0-3.4a7.59 7.59 0 0 1 .51-1.53c.14-.44.42-.94.31-1.34-.48-1.84.46-3 1.66-4.18.14-.13.37-.28.36-.42-.06-2.35 2.5-3.2 3-5.24 0-.15.46-.23.71-.31s.68 0 .78-.2c.83-1.34 2.21-1.49 3.55-1.87 1.83-.51 2.85-.15 3.92 1.51.26.4.95.52 1.78 1 .93 1.49.86 1.35-1 2.38a4.83 4.83 0 0 0-1.83 2.41 23.81 23.81 0 0 0-1.09 4.28 22.53 22.53 0 0 0-.58 4.47 8.67 8.67 0 0 0 1 2.75c.53 1.34 1.68.71 2.6.83a4.19 4.19 0 0 1 1.49.41 5.55 5.55 0 0 1 1.06 1 6.14 6.14 0 0 1-1.07.87 14.28 14.28 0 0 1-3 1.28c-1.86.44-1.75 2-2.11 3.32-.52 1.88-1.92 3.16-3.45 3a4.23 4.23 0 0 1-3.32-3.89 3.05 3.05 0 0 0-1-1.62c-1.11-1.16-2.31-2.22-3.43-3.36-.58-.59-.94-1.25.09-1.84.17-.15.03-.65 0-1.12z"/><path class="cls-1" d="M-39.52 78.63c24-6.34 49.19-12.71 73.38-7.08 28.35 6.6 51 28.77 79.26 36C176.8 123.7 237.83 59.42 303 67.89c27.79 3.61 52.71 20.3 80.6 23.06 30.19 3 59.18-10.62 87.37-21.85s60.24-20.31 88.25-8.65M878.43 75.85c17.61-24.37 52.21-29.43 82-25.14s58.53 15.71 88.59 16.16c39.64.6 82.32-17.37 117.07 1.71 13.07 7.18 23.18 18.93 36.23 26.15 26.67 14.75 59.58 8 89.21.89L1359 79.41c10.41-2.5 20.9-5 31.6-5.43 24.83-1 49 9.4 73.83 8.94a86.22 86.22 0 0 0 60.84-27.24"/></svg>