<svg id="レイヤー_1" data-name="レイヤー 1" xmlns="http://www.w3.org/2000/svg" viewBox="0 0 1500 171.02"><defs><style>.cls-1{fill:#ffd6ed;}.cls-2,.cls-3{fill:none;stroke:#000;stroke-miterlimit:10;}.cls-3{stroke-linecap:round;stroke-width:2px;}</style></defs><title>title_about</title><path class="cls-1" d="M92.67 100.24c-10.75 3.62-9.77 25.31 1.29 34.94a47.51 47.51 0 0 0 14.24 8.37c11.12-18.91 12.27-49.11-15.53-43.31z"/><path class="cls-1" d="M1359.91 20.29C1247.45.26 1130 5.65 1021.11 40.07c-45 14.22-89.65 33.51-136.84 33.61-54.14.12-109-25.11-160.88-9.66-17.53 5.22-33.39 14.83-50.54 21.27-66.16 24.88-140.13-.1-210.53 6.32-21.32 1.94-47.84 8.39-63.1 22.21a56.29 56.29 0 0 1 13.13 13.55c9.65 18.88-23.68 34.21-25.46 10 .77-9.53 5.39-17.3 12.33-23.57-19.27-14.26-47.12-17.12-71.35-12-30.55 6.41-58 22.64-87.39 33.28A248.6 248.6 0 0 1 134.94 149c-9-.77-18.34-2.19-26.74-5.44a45.22 45.22 0 0 1-3.6 5.28C90.39 166.62 64.27 170 41.86 165.9c-14.94-2.7-29.29-8-43.86-12.29v24.58h1508V11c-38.39 29.17-96.63 18.1-146.09 9.29z"/><path d="M1203.1 42.62l1.82 3.47c1.17-.08 1.72-.89 2-2.08.2-.77.12-1.71 1.27-2 2.11-.61 2.92-.06 3.91 2.55.61 1.61 1.52 3.1 2.24 4.68.35.77.54 1.61.83 2.41.78 2.14 1.64 4.25 2.34 6.41 1.6 4.91 3.09 9.86 4.71 14.77.73 2.21 1.72 4.32 2.47 6.52.8 2.36 1.43 4.79 2.18 7.17.51 1.63 1.12 3.24 1.64 4.87s.94 3.19 1.41 4.78c.32 1.09.64 2.18 1 3.27.94 3.14 1.86 6.29 2.83 9.42.52 1.7 1 3.41 1.69 5 1.47 3.53 3.07 7 4.59 10.51.28.64.31 1.39.59 2 1.29 2.87 2.73 5.67 3.9 8.58a7.07 7.07 0 0 1 .36 5.33c-.13.34.08.83.15 1.24a24.44 24.44 0 0 1 .47 2.65 1.19 1.19 0 0 1-.67.88c-1.46.54-3 .94-4.45 1.45-2.37.82-4.71 1.71-7.08 2.52a2.75 2.75 0 0 1-3.87-2.37 35.55 35.55 0 0 0-2.75-9.09 47 47 0 0 1-3.07-10.12c-.33-1.91-1.37-3.46-1.65-5.36-.45-3.08-1.29-6.1-2-9.14-.27-1.15-.63-2.29-1-3.41-.79-2.28-1.59-4.56-2.45-6.82-.76-2-1.74-3.94-2.4-6-1.46-4.56-2.86-9.14-4.14-13.75-1.22-4.41-2.25-8.88-3.39-13.32-.88-3.43-1.8-6.85-2.73-10.26a4.22 4.22 0 0 0-.54-.94 4.89 4.89 0 0 0-.87.6 6.46 6.46 0 0 0-1.5 4.83c0 .38.16.92 0 1.12a6.87 6.87 0 0 0-1.83 4.36 23.47 23.47 0 0 1-1.35 4.26c-.52 1.67-1 3.34-1.49 5s-.86 3.39-1.24 5.1c-.32 1.49-.54 3-.86 4.49-.68 3.15-1.44 6.29-2.1 9.45-.23 1.11-.23 2.27-.43 3.39a12.1 12.1 0 0 1-.65 1.85c-.13.36-.44.79-.34 1.07.71 2-.85 3.36-1.26 5s-.29 3.45-.53 5.16a30 30 0 0 1-.92 4c-.44 1.52-1 3-1.48 4.52-.66 2.17-1.31 4.34-1.88 6.53-.37 1.41-.53 2.86-.88 4.28-.51 2-1.14 4-1.66 6.09-.64 2.5-2 4.79-1.88 7.52a3.29 3.29 0 0 1-2.25 3.63c0-1.33-.06-2.53 0-3.71a47.51 47.51 0 0 1 .5-5.53c.53-3 1.21-5.9 1.91-8.83q1.13-4.76 2.42-9.47c.26-1 .86-1.84 1.13-2.8.58-2.06 1-4.15 1.58-6.23.42-1.64.86-3.28 1.29-4.92s.9-3.49 1.34-5.24a6.12 6.12 0 0 1 .23-1.27c2-3.85 1.78-8.21 2.9-12.26.72-2.61 1.41-5.23 2.1-7.86.11-.41 0-.87.15-1.28.75-2.65 1.54-5.3 2.29-7.95.48-1.69.89-3.4 1.38-5.08.29-1 .68-2 1-3a1.93 1.93 0 0 0 .22-.93c-.47-1.87.23-3.44 1.06-5a22.26 22.26 0 0 0 2.83-9.91c0-1.33.33-2.53-.27-3.89-.31-.7.38-1.85.62-2.79zm39.73 98.49c-2.45-3.25-2-7.78-5-10.86a4.54 4.54 0 0 0-.33 2c.33 3.35 2.73 6.12 2.69 9.58 0 .07.12.14.16.19zM1209.09 49c-.86 1.52-.42 2.85.33 4.25 1.46-2.46 1.43-2.89-.33-4.25zM1276.84 101.12c.87-2.55 2.89-4.09 4.82-5.74a10 10 0 0 0 1.52-2 2.77 2.77 0 0 1 3.23-1.09c1.23.3 2.55.23 3.79.49a3.19 3.19 0 0 1 2 1 50.56 50.56 0 0 1 2.33 5.41 11.89 11.89 0 0 1 .92 2.91 84.23 84.23 0 0 1 .83 9.8c0 2.26-.79 4.52-1.13 6.79-.18 1.18-.06 2.41-.26 3.58a7.16 7.16 0 0 1-.91 1.91c-.11.21-.36.38-.39.58-.51 4-3.16 6.63-5.81 9.24-1.14 1.13-4.5 1.15-5.87.36s-2.59-1.29-4.14-2.06c.21 1.74.23 3.09-1.28 3.87-.19.1-.24.78-.12 1.1.4 1.07.76 2.08-.13 3.09-.1.12-.07.37-.08.56a2.69 2.69 0 0 1-3.69 2.56 1.79 1.79 0 0 1-1.1-1c-.77-3.07-2.4-5.95-2.05-9.3.09-.85-.5-1.75-.6-2.65-.59-5.71-1.19-11.42-1.65-17.14-.29-3.68-.42-7.37-.48-11.06-.06-3.32.09-6.65.1-10 0-2-.13-4-.05-6 .18-4.46.46-8.91.68-13.36.07-1.38 0-2.77.08-4.15.17-3.37-.24-6.8.9-10.09a2.12 2.12 0 0 0 .14-1c-.28-1.62 1-2.29 2-3 1.12-.82 2.6.11 2.78 1.55.15 1.18-.19 2.45.78 3.5a1.7 1.7 0 0 1 0 1.52c-1 1.87-.12 3.58.22 5.38a12.76 12.76 0 0 1 .27 4.54c-.47 2.51.41 4.83.54 7.25a14.24 14.24 0 0 1-.11 1.7 3.68 3.68 0 0 0-.05 1.28c1 3 .67 6.12.68 9.21 0 1.9.49 3.8.66 5.71.11 1.23 0 2.48.08 3.72a9.05 9.05 0 0 0 .13 1zm6.24 30c0-2.33-.09-4.32 0-6.29.08-1.37.61-2.71.68-4.07.23-4.12.31-8.25.49-12.37.13-2.87.4-5.75.43-8.62 0-.66-.71-1.32-1.1-2a8.85 8.85 0 0 0-1.71 1.17c-.4.44-.44 1.24-.86 1.63a12.26 12.26 0 0 0-3.63 7.43c-.21 1.35-.33 2.71-.49 4.07a21.89 21.89 0 0 0-.37 3.2c.08 2.87.52 5.74.39 8.6-.15 3.35 2.32 4.86 4.19 6.81.39.41 1.25.32 1.98.46zM1271.83 113c1.72-2.15 1.67-17.38-.21-18.82-.16 1.94-.4 3.68-.42 5.41 0 3.18.63 6.33 0 9.54-.2 1.18.37 2.49.63 3.87zM1397.89 95.08c-2.53.22-2.48.22-2.25 2.91.12 1.47-.06 3 .08 4.44a2.35 2.35 0 0 0 1 1.53c.77.49.91-.46 1.33-.83a18 18 0 0 1 3.4-2.57c1.5-.76 2.69.35 2.42 2.06-.12.76-.28 1.51-.33 2.28 0 .35 0 .88.25 1 1.39 1 .47 1.9-.26 2.59-1.63 1.53-3.38 2.94-5.06 4.42a2.67 2.67 0 0 0-.43.73 3.23 3.23 0 0 1-5 .79c-.62-.55-1.41-.94-2-1.55a6.06 6.06 0 0 1-.87-1.73c-.48-1.11-.94-2.24-1.4-3.36s-.84-2.11-1.26-3.17c-.1-.26-.13-.59-.31-.77-1-1-1.06-2.41-1.24-3.74a31.08 31.08 0 0 0-.67-3.9 1.55 1.55 0 0 0-1.18-.88 8.44 8.44 0 0 1-4.29-.85c-.88-.44-.88-.85-.58-1.55.54-1.24 3-2.55 4.49-2.34s2-.32 2.09-1.85c0-1.1 0-2.2.1-3.3.16-2.22.27-4.45.6-6.64a4.13 4.13 0 0 1 3.18-3.78c.94-.25 1.67-1.3 2.46-2s1.31-2.62 3.1-1.92c1.42.55 2.54 3.38 1.92 4.88-1.57 3.78-1.59 7.74-1.46 11.72 0 .29.07.57.05.86-.14 2.41-.14 2.37 2.33 2.53a7 7 0 0 1 2.56.57c.49.23 1.14 1.26 1 1.41a7.64 7.64 0 0 1-2.1 1.93c-.39.29-1.1.08-1.67.08zM1322.25 127.46c-4.21.46-5.89-1.48-7.56-4.7-1.38-2.66-1.12-5.4-1.13-8.15s.16-5.73.36-8.59c.14-1.91.43-3.81.72-5.7a4.06 4.06 0 0 1 3.4-2.66 22.23 22.23 0 0 1 3.57.89c.27.07.53.29.79.29 2.78-.06 4.9 1.51 7 3a9.38 9.38 0 0 1 1.72 2c.64.81 1.29 1.61 1.9 2.44a3.72 3.72 0 0 1 .47 1 17.32 17.32 0 0 1 .6 1.88 20.66 20.66 0 0 1 .6 3.1c.05.69-.32 1.41-.31 2.12.07 2.92-1 5.57-1.8 8.29a5.54 5.54 0 0 1-3 3.81 24.13 24.13 0 0 1-5.3 1 13.79 13.79 0 0 1-2.03-.02zm-2.41-18.21c-1.92-1.22-2.39-.47-2.43.85v3.12a15.2 15.2 0 0 0-.06 2.54 42.34 42.34 0 0 0 1.06 4.68c.17.61.54 1.53 1 1.62 1 .22 1.37-.67 1.49-1.54.21-1.47 1-1.94 2.42-1.61 1.12.26 2-.17 1.8-1.46-.45-2.45-1.09-4.86-1.65-7.29a6.43 6.43 0 0 0-.3-1.37 34.71 34.71 0 0 0-1.88-3.45 1.16 1.16 0 0 0-1.13-.11c-.24.15-.27.71-.29 1.1-.06.82-.03 1.67-.03 2.92zM1362.27 106.75a17.8 17.8 0 0 1-1.61 3.26 43.49 43.49 0 0 1-3.16 3.14 27.6 27.6 0 0 0-2.45 2.76c-.21.28.07.9 0 1.35-.09.79-.11 2.17-.42 2.24a4.05 4.05 0 0 1-2.89-.24c-.88-.58-1.32-1.8-2.06-2.65a17.6 17.6 0 0 0-2.51-2.43 7.13 7.13 0 0 1-3.12-6.21c.11-2.72.23-5.44.4-8.15a5.1 5.1 0 0 1 5-4.39 2.11 2.11 0 0 1 1.73 2c-.18 1.18-.55 2.35-.61 3.54-.11 2.09-.12 4.18 0 6.27 0 .93.71 1.18 1.55.68a5.88 5.88 0 0 1 1.1-.62c1.41-.47 2.79-1.45 4.24 0a19.7 19.7 0 0 0 2.09-9.21v-2c0-3.75 4.57-6.27 7.51-4.63a2.22 2.22 0 0 1 1 3.23 6 6 0 0 0-.37 4.75 10.52 10.52 0 0 0 2.91 5.13c1 .92 1.78 2 .66 3.54-.21.29.18 1.39.6 1.72 1.15.9.68 2 .4 2.89a2.36 2.36 0 0 1-1.7 1.13c-2.92.4-4.59-1.38-6-3.65-.56-1.2-1.37-2.2-2.29-3.45z"/><path d="M1213 116.36c-2.52-.4-5-.88-7.56-1.18-2.09-.25-4.22-.21-6.31-.46a2.74 2.74 0 0 1-2-1c-.36-.8-.39-2.08.83-2.38a9.27 9.27 0 0 1 3.77-.31c3.31.6 6.59 1.4 9.85 2.25a8.43 8.43 0 0 1 2.58 1.44c.3.21.36.76.52 1.16-.37.14-.74.3-1.13.4a1.75 1.75 0 0 1-.57 0z"/><path class="cls-2" d="M-24.11 143.39c22.49 3.56 43.56 13.46 66 17.52s48.53.72 62.73-17.08 18.65-55-11.93-48.58c-10.75 3.62-9.77 25.31 1.29 34.94s26.37 12.55 41 13.8a248.6 248.6 0 0 0 105.54-13.92c29.35-10.64 56.83-26.87 87.39-33.28s66.88-.21 84.48 25.58c9.65 18.88-23.68 34.21-25.46 10 2.45-30.48 44.34-43 75.44-45.78 70.4-6.41 144.37 18.57 210.53-6.32 17.12-6.44 33-16 50.53-21.27 51.89-15.44 106.75 9.78 160.88 9.66 47.18-.1 91.85-19.39 136.84-33.61C1130 .65 1247.45-4.74 1359.91 15.29c53.6 9.55 117.5 21.75 155.29-17.45"/><path d="M158.13 140.07L156 140c2.19-14.21 8.53-34.27 26.35-49.12 18.14-15.11 45.94-16.82 59.89-13.2s31.19 19.62 34.22 31.73l-1.85 1c-2.88-11.53-19.52-27.32-32.88-30.78-13.54-3.51-40.52-1.86-58.11 12.8-17.32 14.48-23.36 33.77-25.49 47.64z"/><path d="M197.47 102.08c-1.86 1.76-2.16 5.9.12 7.05 2 .24 3.71-1.86 3.53-3.85s-.92-3.88-3.65-3.2zM240 97.24c-.59 1.27-.48 5.2 1.95 6 2 .65 4-1.95 3.28-3.95s-1.56-3.33-3.66-3c-.05-.03-1.02-.29-1.57.95z"/><path class="cls-3" d="M213.28 104.14c1.47 1.93 4.18 2.57 6.72 2.47s6.58-1.5 7-4.51"/></svg>